<svg xmlns="http://www.w3.org/2000/svg" width="87.193" height="125.806" viewBox="0 0 87.193 125.806">
  <g id="Group_39" data-name="Group 39" transform="translate(-55.702 -0.505)">
    <path id="Path_63" data-name="Path 63" d="M82.937,4.121l59.169,104.614-27.235,17.577L55.7,21.7Z" fill="#232326"/>
    <path id="Path_64" data-name="Path 64" d="M87.816.505,61.541,15.676v6.569L87.816,7.074Z" fill="#887d74"/>
    <path id="Path_65" data-name="Path 65" d="M93.413,10.2,67.138,25.372v6.569l26.275-15.17Z" fill="#887d74"/>
    <path id="Path_66" data-name="Path 66" d="M98.887,20.055,72.612,35.225v6.569l26.275-15.17Z" fill="#887d74"/>
    <path id="Path_67" data-name="Path 67" d="M104.361,29.908,78.086,45.078v6.569l26.275-15.17Z" fill="#887d74"/>
    <path id="Path_68" data-name="Path 68" d="M109.835,39.762,83.56,54.932V61.5l26.275-15.17Z" fill="#887d74"/>
    <path id="Path_69" data-name="Path 69" d="M115.31,49.615,89.035,64.785v6.569l26.275-15.17Z" fill="#887d74"/>
    <path id="Path_70" data-name="Path 70" d="M120.784,59.468,94.509,74.638v6.569l26.275-15.17Z" fill="#887d74"/>
    <path id="Path_71" data-name="Path 71" d="M126.258,69.321,99.983,84.491V91.06l26.275-15.17Z" fill="#887d74"/>
    <path id="Path_72" data-name="Path 72" d="M131.732,79.175l-26.275,15.17v6.569l26.275-15.17Z" fill="#887d74"/>
    <path id="Path_73" data-name="Path 73" d="M137.206,89.028,110.931,104.2v6.569L137.206,95.6Z" fill="#887d74"/>
    <path id="Path_74" data-name="Path 74" d="M87.816,6.917l-26.4,15.241,5.689,3.284L93.505,10.2Z" fill="#faefc5"/>
    <path id="Path_75" data-name="Path 75" d="M93.413,16.613l-26.4,15.241L72.7,35.139,99.1,19.9Z" fill="#faefc5"/>
    <path id="Path_76" data-name="Path 76" d="M98.887,26.467l-26.4,15.241,5.689,3.284,26.4-15.241Z" fill="#faefc5"/>
    <path id="Path_77" data-name="Path 77" d="M104.361,36.32l-26.4,15.241,5.689,3.284L110.05,39.6Z" fill="#faefc5"/>
    <path id="Path_78" data-name="Path 78" d="M109.835,46.173l-26.4,15.241L89.125,64.7l26.4-15.241Z" fill="#faefc5"/>
    <path id="Path_79" data-name="Path 79" d="M115.31,56.026l-26.4,15.241L94.6,74.552,121,59.311Z" fill="#faefc5"/>
    <path id="Path_80" data-name="Path 80" d="M120.784,65.88l-26.4,15.241,5.689,3.284,26.4-15.241Z" fill="#faefc5"/>
    <path id="Path_81" data-name="Path 81" d="M126.258,75.733l-26.4,15.241,5.689,3.284,26.4-15.241Z" fill="#faefc5"/>
    <path id="Path_82" data-name="Path 82" d="M131.732,85.586l-26.4,15.241,5.689,3.284,26.4-15.241Z" fill="#faefc5"/>
    <path id="Path_83" data-name="Path 83" d="M137.206,95.44l-26.4,15.241,5.689,3.284,26.4-15.241Z" fill="#1adab7"/>
  </g>
</svg>
