<svg id="snow_tree" xmlns="http://www.w3.org/2000/svg" width="99.996" height="103.992" viewBox="0 0 99.996 103.992">
  <g id="Group_19042" data-name="Group 19042" transform="translate(9.008 9.463)">
    <path id="Path_88746" data-name="Path 88746" d="M467,218.35c0-4.239-2.727-7.981-6.894-10.265a8.732,8.732,0,0,0,1.905-5.312c0-4.6-3.947-8.56-9.648-10.422-.373-4.414-6.128-7.924-13.193-7.924a18.936,18.936,0,0,0-7.418,1.441,33.15,33.15,0,0,0-16.329-3.933c-11.78,0-21.49,5.14-23.023,11.8-5.256,1.852-8.892,5.778-8.892,10.335,0,3.287,1.9,6.243,4.921,8.335a10.073,10.073,0,0,0-3.747,7.673c0,4.769,3.634,8.812,8.682,10.276.248,4.9,4.686,8.823,10.23,9.049,1.864,2.067,5.229,3.452,9.082,3.452a15.214,15.214,0,0,0,3.661-.445,21.982,21.982,0,0,0,19.474-2.758,13.546,13.546,0,0,0,10.792,5c7.132,0,12.913-4.96,12.913-11.077a9.686,9.686,0,0,0-.968-4.2C463.587,227.23,467,223.1,467,218.35Z" transform="translate(-380.868 -176.505)" fill="#19555a"/>
    <path id="Path_88747" data-name="Path 88747" d="M451.255,275.981c-3.016-2.848-6.869-12.063-6.7-15.581s1.5-12.063,3.348-15.748,8.547-14.408,8.547-14.408l-2.178-3.016s-3.188,4.02-3.772,5.864-3.934,6.366-4.437,5.864.167-5.026,1.843-7.539,6.534-12.9,5.362-13.068-5.529-1.508-5.529-1.508-2.524,8.713-3.188,10.723-1.838,4.691-3.848,4.188-2.011.838-3.184-3.016-1.675-10.22-3.853-11.9-7.372,0-7.372,0,3.854,4.524,4.524,7.2,2.01,6.7,1.675,8.712-.335,6.534-2.514,4.858-6.2-7.2-6.7-7.2-3.184,1.508-2.848,2.01,5.194,5.864,6.031,8.88,3.184,11.393,3.184,15.748-.67,11.225-1.341,13.236a33.879,33.879,0,0,1-3.183,5.7s4.021-.67,5.361,1.173,4.83,1.843,7.943,1.173a59.7,59.7,0,0,0,7.638-2.514A48.832,48.832,0,0,1,451.255,275.981Z" transform="translate(-389.183 -184.205)" fill="#9b985f"/>
    <path id="Path_88748" data-name="Path 88748" d="M428.546,275.467c.837-.586,3.015-2.429,3.1-4.691s.252-8.209,0-10.22-.872-7.036-1.483-9.466-1.28-7.121-2.035-8.461-2.765-5.7-3.769-7.2-2.086-3-1.675-3.6,1.424.922,2.848,2.43,3.937,4.942,4.858,5.528a1.817,1.817,0,0,0,2.765-1.256,26.6,26.6,0,0,0,1.089-6.031,17.413,17.413,0,0,0-1.089-6.451c-.922-3.016-1.843-4.942-1.34-5.7s1.873-2.6,2.444-1.173,1.325,6.45,2.247,10.052.641,4.691,2.414,4.942,3.114.671,4.036-.167,1.256-.837,1.843-3.1a57.906,57.906,0,0,1,1.926-6.032c.586-1.507,2.011-4.942,2.178-5.194s2.011,0,2.094,1.089-1.005,6.032-2.429,8.042a35.235,35.235,0,0,0-3.937,6.869,27.215,27.215,0,0,0-1.005,5.445c0,.921.5,2.6,2.262,1.507s6.366-8.125,6.366-8.125a19.979,19.979,0,0,1-1.926,5.529c-1.257,2.01-4.859,6.031-5.445,7.957a66.727,66.727,0,0,0-1.34,9.047c-.251,2.513-.586,5.529.167,8.377s1.843,6.7,2.095,8.041.156,3.167-.72,3.495-4.4,1.526-5.28,1.738a48.965,48.965,0,0,1-5.812.621c-1.173.01-2.438-1.527-3.494-2.054a11.857,11.857,0,0,0-2.713-.806Z" transform="translate(-389.677 -184.781)" fill="#bcb880"/>
    <path id="Path_88749" data-name="Path 88749" d="M427.791,238.026a19.694,19.694,0,0,1,2.262,4.021c.921,2.262.335,4.325,1.759,7.607s1.173,5.46,1.843,8.811a34.143,34.143,0,0,1,.921,8.209,40.6,40.6,0,0,1-.921,7.875c-.419,1.089-2.183,3.525-1.508,3.854s.863,1.1,2.442,1.39a15.218,15.218,0,0,0,5.971-.349c1.9-.525,4.813-1,4.86-1.521s-1.713-3.039-2.466-7.4-1.592-6.534-1.592-10.136.252-6.869,1.843-10.22a22.759,22.759,0,0,1,3.937-5.7s-2.848,1.089-3.351.67-.754-1.173-.754-3.686a11.46,11.46,0,0,1,1.173-5.11c.335-.586-1.424.252-3.183.419s-3.686.586-3.561-1.256a17.909,17.909,0,0,0-.376-4.943c-.335-1.843-1.508-7.958-1.759-8.293s-1.341-1.256-1.089,0,.754,4.607,1.173,6.031.419,2.848.419,5.948a55.026,55.026,0,0,1-.5,7.371,1.6,1.6,0,0,1-2.095,1.256,7.81,7.81,0,0,1-2.848-2.6A16.768,16.768,0,0,0,427.791,238.026Z" transform="translate(-390.849 -185.454)" fill="#d8d29e"/>
    <path id="Path_88750" data-name="Path 88750" d="M438.318,242.988c0,.419.084,4.524,0,5.445s-3.1-.084-3.518,1.089,1.126,6.031,1.778,8.879.651,3.016.9,8.125,1.582,6.115.875,8.628-3.433,9.11-2.818,9.271-.308.247,2.157.3a12.481,12.481,0,0,0,4.429-.493c1.366-.342,2.226-.371,2.226-.706a22.062,22.062,0,0,1-2.011-7.037c-.5-4.523-1.089-7.036-1.34-10.722s-.531-7.121.655-9.717,2.277-3.267,1.941-4.691a36.248,36.248,0,0,1-.67-6.618,1.747,1.747,0,0,0-2.262-1.759A4.979,4.979,0,0,1,438.318,242.988Z" transform="translate(-392.413 -190.249)" fill="#ede6b9"/>
    <path id="Path_88751" data-name="Path 88751" d="M468.56,220.983a9.345,9.345,0,0,0-7.356-9.435,7.771,7.771,0,0,0,.863-3.538,7.256,7.256,0,0,0-3.668-6.467,8.687,8.687,0,0,0,3.008-6.4c0-5.362-5.4-9.709-12.05-9.709-.3,0-.586.019-.877.036-1.541-2.377-4.963-4.034-8.945-4.034a11.492,11.492,0,0,0-8.041,2.925c-1.411-2.686-5.846-4.649-11.108-4.649a17.167,17.167,0,0,0-8.132,1.867,5.244,5.244,0,0,0-2.754-.766,4.769,4.769,0,0,0-4.057,2.03,11.425,11.425,0,0,0-5.162,1.749c-.22-.019-.438-.04-.666-.04-2.644,0-4.787,1.306-4.787,2.917a1.9,1.9,0,0,0,.222.833c-.075,0-.146-.012-.222-.012-3.4,0-6.163,1.534-6.163,3.427a2.645,2.645,0,0,0,1.253,2.051,11.961,11.961,0,0,0-2.978,19.8,10.835,10.835,0,0,0-3.558,7.929c0,5.326,4.046,9.789,9.516,11.067a3.937,3.937,0,0,0-.932,2.507c0,2.492,2.472,4.512,5.521,4.512s5.521-2.02,5.521-4.512a3.73,3.73,0,0,0-.277-1.342c.094,0,.181.021.277.021,3.586,0,6.493-2.217,6.493-4.952a3.765,3.765,0,0,0-.078-.591,5.7,5.7,0,0,0,2.572.591c2.431,0,4.4-1.38,4.4-3.081a2.9,2.9,0,0,0-1.737-2.438,5.946,5.946,0,0,0,1.257-3.615c4.614,0,8.353-2.406,8.7-5.452a9.327,9.327,0,0,0,2.846,1.9,3.517,3.517,0,0,0-.064.527,3.878,3.878,0,0,0,1.778,3.144,3.339,3.339,0,0,0-.587,1.864,4.048,4.048,0,0,0,8.053,0,3.375,3.375,0,0,0-.765-2.115,3.8,3.8,0,0,0,1.425-2.892,3.491,3.491,0,0,0-.106-.846c.149-.079.279-.174.421-.259a13.248,13.248,0,0,0,6.287,1.53,14.127,14.127,0,0,0,2.533-.235,6.691,6.691,0,0,0-.332,2.012,6.324,6.324,0,0,0,3.741,5.879,6.664,6.664,0,0,0,6.689,11.054,5.459,5.459,0,0,0,1.73.29c2.7,0,4.9-1.922,4.9-4.292a3.83,3.83,0,0,0-.443-1.766A9.546,9.546,0,0,0,468.56,220.983Z" transform="translate(-380.74 -176.003)" fill="#337254"/>
    <path id="Path_88752" data-name="Path 88752" d="M464.107,212.407a4.787,4.787,0,0,0,.07-.578,5.9,5.9,0,0,0-4.082-5.29,5.464,5.464,0,0,0,1.205-3.367,5.847,5.847,0,0,0-2.672-4.733,6.291,6.291,0,0,0,2.424-4.8c0-3.1-2.552-5.7-6.057-6.606,0-.048.012-.1.012-.144,0-4.093-5.124-7.411-11.445-7.411a16.7,16.7,0,0,0-4.909.724,8.217,8.217,0,0,0-5.383-1.9c-.183,0-.354.032-.533.043a8.846,8.846,0,0,0-7.151-3.418,8.692,8.692,0,0,0-7.517,4.006,11.764,11.764,0,0,0-5.34-1.218c-4.33,0-7.859,2.04-8.356,4.662a14.521,14.521,0,0,0-3.437-.406c-4.7,0-8.51,2.1-8.51,4.7a2.667,2.667,0,0,0,.132.72c-3.877.8-6.735,3.377-6.735,6.469a5.029,5.029,0,0,0,.3,1.636c-2.985,1.369-5,3.943-5,6.9a7.531,7.531,0,0,0,3.91,6.316,7.367,7.367,0,0,0-1.709,4.665,7.215,7.215,0,0,0,.292,1.933,5.791,5.791,0,1,0,8.02,5.838c.018,0,.034,0,.051,0a8.09,8.09,0,0,0,8.348-7.624c4.024-.346,7.206-4.217,7.206-8.994,0-.341-.054-.664-.086-1a14.1,14.1,0,0,0,5.3,1,12.521,12.521,0,0,0,7.875-2.5,11.927,11.927,0,0,0,5.729,2.361,3.856,3.856,0,0,0-.07.616c0,2.431,2.242,4.4,5.009,4.4a4.828,4.828,0,0,0,4.938-3.781,12.839,12.839,0,0,0,4.62.846,12.419,12.419,0,0,0,6.068-1.527,6.793,6.793,0,0,0,4.287,3.983,5.062,5.062,0,0,0-.964,2.9c0,2.674,2.182,4.9,5.148,5.613a6.308,6.308,0,0,0-.085.844,6.456,6.456,0,1,0,9.1-5.878Z" transform="translate(-380.099 -174.925)" fill="#7f9b29"/>
    <path id="Path_88753" data-name="Path 88753" d="M391.08,198.424a6.16,6.16,0,0,1-.916-3.163c0-3.841,3.595-6.956,8.029-6.956a8.908,8.908,0,0,1,3.833.879c.284-2.507,1.817-4.428,3.682-4.428a2.787,2.787,0,0,1,1.27.332,17.3,17.3,0,0,1,11.5-4.44,16.817,16.817,0,0,1,2.985.288,9.676,9.676,0,0,1,7.177-3.129,9.5,9.5,0,0,1,8.319,4.7,12.993,12.993,0,0,1,4.923-.984,14.016,14.016,0,0,1,13.021,9.708,9.418,9.418,0,0,1,6.156,4.088,5.556,5.556,0,0,0,.294-1.69c0-3.1-2.552-5.7-6.057-6.606,0-.048.012-.1.012-.144,0-4.093-5.124-7.411-11.445-7.411a16.7,16.7,0,0,0-4.909.724,8.217,8.217,0,0,0-5.383-1.9c-.183,0-.354.032-.533.043a8.846,8.846,0,0,0-7.151-3.418,8.692,8.692,0,0,0-7.517,4.006,11.764,11.764,0,0,0-5.34-1.218c-4.33,0-7.859,2.04-8.356,4.662a14.521,14.521,0,0,0-3.437-.406c-4.7,0-8.51,2.1-8.51,4.7a2.667,2.667,0,0,0,.132.72c-3.877.8-6.735,3.377-6.735,6.469a5.029,5.029,0,0,0,.3,1.636c-2.985,1.369-5,3.943-5,6.9,0,.038.008.075.009.113A18.959,18.959,0,0,1,391.08,198.424Z" transform="translate(-380.398 -174.925)" fill="#a9c437"/>
  </g>
  <g id="Group_19043" data-name="Group 19043">
    <path id="Path_88754" data-name="Path 88754" d="M463.3,195.073a5.286,5.286,0,0,0,.729-2.619,5.021,5.021,0,0,0-.07-.823,6.927,6.927,0,0,0,1.141-1.369c2.407-3.824.633-9.27-3.964-12.163a10.342,10.342,0,0,0-9.259-1.119c-1.966-2.625-5.6-4.483-9.855-4.812a8.615,8.615,0,0,0-5.923-2.039,10.528,10.528,0,0,0-3.046.441,19.285,19.285,0,0,0-21.831-.136,21.1,21.1,0,0,0-7.952-1.5c-7.258,0-13.323,3.389-14.821,7.916-6.243.141-11.252,4.131-11.252,9.044a7.144,7.144,0,0,0,.08,1.026c-5.07,1.172-8.81,5.184-8.81,9.967a9.415,9.415,0,0,0,2.29,6.081,9.758,9.758,0,0,0-2.29,6.266,10.434,10.434,0,0,0,20.854,0,9.685,9.685,0,0,0-1.17-4.609,9.781,9.781,0,0,0,4.026-7.738,9.1,9.1,0,0,0-.3-2.272,13.79,13.79,0,0,0,1.695-.479c1.982,2.944,7.421,5.063,13.836,5.063,4.951,0,9.32-1.263,11.971-3.192a29.782,29.782,0,0,0,7.292.881c.844,0,1.672-.036,2.483-.1.708,2.541,5.038,4.5,10.289,4.5a18.042,18.042,0,0,0,6.089-1,23.024,23.024,0,0,0,4.461.434,22.289,22.289,0,0,0,6.077-.825,7.193,7.193,0,0,0-.238,1.819,6.329,6.329,0,1,0,12.627,0A6.656,6.656,0,0,0,463.3,195.073Z" transform="translate(-368.47 -163.701)" fill="#b9e8e7"/>
    <path id="Path_88755" data-name="Path 88755" d="M463.3,195a5.286,5.286,0,0,0,.729-2.619,5.021,5.021,0,0,0-.07-.823,6.928,6.928,0,0,0,1.141-1.369c2.407-3.824.633-9.27-3.964-12.163a10.344,10.344,0,0,0-9.259-1.119c-1.966-2.624-5.6-4.483-9.855-4.812a8.615,8.615,0,0,0-5.923-2.04,10.528,10.528,0,0,0-3.046.441,19.285,19.285,0,0,0-21.831-.136,21.1,21.1,0,0,0-7.952-1.5c-7.258,0-13.323,3.389-14.821,7.916-6.243.141-11.252,4.131-11.252,9.044a7.144,7.144,0,0,0,.08,1.026c-5.07,1.172-8.81,5.184-8.81,9.967a9.415,9.415,0,0,0,2.29,6.081,9.758,9.758,0,0,0-2.29,6.266,10.434,10.434,0,0,0,20.854,0,9.68,9.68,0,0,0-1.17-4.608,9.783,9.783,0,0,0,4.026-7.739,9.1,9.1,0,0,0-.3-2.272,13.787,13.787,0,0,0,1.695-.479c1.982,2.944,7.421,5.063,13.836,5.063,4.951,0,9.32-1.263,11.971-3.192a29.782,29.782,0,0,0,7.292.881c.844,0,1.672-.036,2.483-.1.708,2.541,5.038,4.5,10.289,4.5a18.043,18.043,0,0,0,6.089-1,23.025,23.025,0,0,0,4.461.434,22.289,22.289,0,0,0,6.077-.825,7.194,7.194,0,0,0-.238,1.819,6.329,6.329,0,1,0,12.627,0A6.656,6.656,0,0,0,463.3,195Z" transform="translate(-368.47 -163.684)" fill="#bae8e7"/>
    <path id="Path_88756" data-name="Path 88756" d="M463.3,194.921a5.286,5.286,0,0,0,.729-2.619,5.02,5.02,0,0,0-.07-.823,6.928,6.928,0,0,0,1.141-1.369c2.407-3.824.633-9.27-3.964-12.163a10.344,10.344,0,0,0-9.259-1.119c-1.966-2.624-5.6-4.483-9.855-4.812a8.615,8.615,0,0,0-5.923-2.04,10.529,10.529,0,0,0-3.046.441,19.285,19.285,0,0,0-21.831-.136,21.1,21.1,0,0,0-7.952-1.5c-7.258,0-13.323,3.389-14.821,7.916-6.243.141-11.252,4.131-11.252,9.044a7.144,7.144,0,0,0,.08,1.026c-5.07,1.172-8.81,5.184-8.81,9.967a9.415,9.415,0,0,0,2.29,6.081,9.758,9.758,0,0,0-2.29,6.266,10.434,10.434,0,0,0,20.854,0,9.682,9.682,0,0,0-1.17-4.608,9.783,9.783,0,0,0,4.026-7.739,9.1,9.1,0,0,0-.3-2.272,13.79,13.79,0,0,0,1.695-.479c1.982,2.944,7.421,5.063,13.836,5.063,4.951,0,9.32-1.263,11.971-3.192a29.782,29.782,0,0,0,7.292.881c.844,0,1.672-.036,2.483-.1.708,2.541,5.038,4.5,10.289,4.5a18.043,18.043,0,0,0,6.089-1,23.024,23.024,0,0,0,4.461.434,22.289,22.289,0,0,0,6.077-.825,7.194,7.194,0,0,0-.238,1.819,6.329,6.329,0,1,0,12.627,0A6.656,6.656,0,0,0,463.3,194.921Z" transform="translate(-368.47 -163.667)" fill="#bbe9e8"/>
    <path id="Path_88757" data-name="Path 88757" d="M463.3,194.845a5.286,5.286,0,0,0,.729-2.619,5.028,5.028,0,0,0-.07-.823,6.905,6.905,0,0,0,1.141-1.369c2.407-3.823.633-9.27-3.964-12.163a10.345,10.345,0,0,0-9.259-1.118c-1.966-2.624-5.6-4.483-9.855-4.812a8.615,8.615,0,0,0-5.923-2.04,10.5,10.5,0,0,0-3.046.442,19.284,19.284,0,0,0-21.831-.136,21.1,21.1,0,0,0-7.952-1.5c-7.258,0-13.323,3.389-14.821,7.916-6.243.141-11.252,4.131-11.252,9.044a7.144,7.144,0,0,0,.08,1.026c-5.07,1.172-8.81,5.184-8.81,9.967a9.415,9.415,0,0,0,2.29,6.081,9.758,9.758,0,0,0-2.29,6.267,10.434,10.434,0,0,0,20.854,0,9.682,9.682,0,0,0-1.17-4.608,9.783,9.783,0,0,0,4.026-7.739,9.1,9.1,0,0,0-.3-2.272,13.8,13.8,0,0,0,1.695-.479c1.982,2.944,7.421,5.063,13.836,5.063,4.951,0,9.32-1.263,11.971-3.192a29.782,29.782,0,0,0,7.292.881c.844,0,1.672-.036,2.483-.1.708,2.541,5.038,4.5,10.289,4.5a18.042,18.042,0,0,0,6.089-1A23.024,23.024,0,0,0,450,200.5a22.319,22.319,0,0,0,6.077-.824,7.187,7.187,0,0,0-.238,1.818,6.329,6.329,0,1,0,12.627,0A6.656,6.656,0,0,0,463.3,194.845Z" transform="translate(-368.47 -163.65)" fill="#bce9e8"/>
    <path id="Path_88758" data-name="Path 88758" d="M463.3,194.769a5.286,5.286,0,0,0,.729-2.619,5.028,5.028,0,0,0-.07-.823,6.905,6.905,0,0,0,1.141-1.369c2.407-3.823.633-9.27-3.964-12.163a10.342,10.342,0,0,0-9.259-1.118c-1.966-2.625-5.6-4.484-9.855-4.813a8.615,8.615,0,0,0-5.923-2.04,10.5,10.5,0,0,0-3.046.442,19.284,19.284,0,0,0-21.831-.136,21.1,21.1,0,0,0-7.952-1.5c-7.258,0-13.323,3.389-14.821,7.916-6.243.141-11.252,4.131-11.252,9.044a7.144,7.144,0,0,0,.08,1.026c-5.07,1.172-8.81,5.184-8.81,9.967a9.415,9.415,0,0,0,2.29,6.081,9.759,9.759,0,0,0-2.29,6.267,10.434,10.434,0,0,0,20.854,0,9.683,9.683,0,0,0-1.17-4.609,9.783,9.783,0,0,0,4.026-7.739,9.1,9.1,0,0,0-.3-2.272,13.787,13.787,0,0,0,1.695-.479c1.982,2.944,7.421,5.063,13.836,5.063,4.951,0,9.32-1.263,11.971-3.192a29.782,29.782,0,0,0,7.292.881c.844,0,1.672-.036,2.483-.1.708,2.541,5.038,4.5,10.289,4.5a18.043,18.043,0,0,0,6.089-1,23.025,23.025,0,0,0,4.461.434,22.319,22.319,0,0,0,6.077-.824,7.187,7.187,0,0,0-.238,1.818,6.329,6.329,0,1,0,12.627,0A6.656,6.656,0,0,0,463.3,194.769Z" transform="translate(-368.47 -163.633)" fill="#bde9e8"/>
    <path id="Path_88759" data-name="Path 88759" d="M463.3,194.693a5.286,5.286,0,0,0,.729-2.619,5.028,5.028,0,0,0-.07-.823,6.905,6.905,0,0,0,1.141-1.369c2.407-3.823.633-9.27-3.964-12.163a10.342,10.342,0,0,0-9.259-1.118c-1.966-2.625-5.6-4.484-9.855-4.813a8.615,8.615,0,0,0-5.923-2.04,10.5,10.5,0,0,0-3.046.442,19.284,19.284,0,0,0-21.831-.136,21.1,21.1,0,0,0-7.952-1.5c-7.258,0-13.323,3.389-14.821,7.916-6.243.141-11.252,4.131-11.252,9.044a7.144,7.144,0,0,0,.08,1.026c-5.07,1.172-8.81,5.184-8.81,9.967a9.415,9.415,0,0,0,2.29,6.081,9.759,9.759,0,0,0-2.29,6.267,10.434,10.434,0,0,0,20.854,0,9.683,9.683,0,0,0-1.17-4.609,9.783,9.783,0,0,0,4.026-7.739,9.1,9.1,0,0,0-.3-2.272,13.787,13.787,0,0,0,1.695-.479c1.982,2.944,7.421,5.063,13.836,5.063,4.951,0,9.32-1.263,11.971-3.192a29.782,29.782,0,0,0,7.292.881c.844,0,1.672-.035,2.483-.1.708,2.541,5.038,4.5,10.289,4.5a18.043,18.043,0,0,0,6.089-1,23.025,23.025,0,0,0,4.461.434,22.32,22.32,0,0,0,6.077-.824,7.187,7.187,0,0,0-.238,1.818,6.329,6.329,0,1,0,12.627,0A6.656,6.656,0,0,0,463.3,194.693Z" transform="translate(-368.47 -163.615)" fill="#beeae9"/>
    <path id="Path_88760" data-name="Path 88760" d="M463.3,194.617a5.286,5.286,0,0,0,.729-2.619,5.028,5.028,0,0,0-.07-.823,6.905,6.905,0,0,0,1.141-1.369c2.407-3.823.633-9.27-3.964-12.163a10.342,10.342,0,0,0-9.259-1.119c-1.966-2.625-5.6-4.484-9.855-4.813a8.615,8.615,0,0,0-5.923-2.04,10.5,10.5,0,0,0-3.046.442,19.282,19.282,0,0,0-21.831-.136,21.08,21.08,0,0,0-7.952-1.5c-7.258,0-13.323,3.389-14.821,7.916-6.243.141-11.252,4.131-11.252,9.044a7.144,7.144,0,0,0,.08,1.026c-5.07,1.172-8.81,5.184-8.81,9.967a9.415,9.415,0,0,0,2.29,6.081,9.759,9.759,0,0,0-2.29,6.267,10.434,10.434,0,0,0,20.854,0,9.685,9.685,0,0,0-1.17-4.609,9.783,9.783,0,0,0,4.026-7.739,9.1,9.1,0,0,0-.3-2.272,13.8,13.8,0,0,0,1.695-.479c1.982,2.944,7.421,5.063,13.836,5.063,4.951,0,9.32-1.263,11.971-3.192a29.782,29.782,0,0,0,7.292.881c.844,0,1.672-.035,2.483-.1.708,2.541,5.038,4.5,10.289,4.5a18.042,18.042,0,0,0,6.089-1,23.024,23.024,0,0,0,4.461.434,22.319,22.319,0,0,0,6.077-.824,7.187,7.187,0,0,0-.238,1.818,6.329,6.329,0,1,0,12.627,0A6.656,6.656,0,0,0,463.3,194.617Z" transform="translate(-368.47 -163.598)" fill="#bfeae9"/>
    <path id="Path_88761" data-name="Path 88761" d="M463.3,194.541a5.286,5.286,0,0,0,.729-2.619,5.028,5.028,0,0,0-.07-.823,6.905,6.905,0,0,0,1.141-1.369c2.407-3.823.633-9.27-3.964-12.163a10.342,10.342,0,0,0-9.259-1.119c-1.966-2.625-5.6-4.484-9.855-4.813a8.615,8.615,0,0,0-5.923-2.04,10.5,10.5,0,0,0-3.046.442,19.282,19.282,0,0,0-21.831-.136,21.08,21.08,0,0,0-7.952-1.5c-7.258,0-13.323,3.389-14.821,7.916-6.243.141-11.252,4.131-11.252,9.044a7.145,7.145,0,0,0,.08,1.026c-5.07,1.172-8.81,5.184-8.81,9.967a9.415,9.415,0,0,0,2.29,6.081,9.759,9.759,0,0,0-2.29,6.267,10.434,10.434,0,0,0,20.854,0,9.685,9.685,0,0,0-1.17-4.609,9.783,9.783,0,0,0,4.026-7.739,9.1,9.1,0,0,0-.3-2.272,13.657,13.657,0,0,0,1.695-.479c1.982,2.944,7.421,5.063,13.836,5.063,4.951,0,9.32-1.263,11.971-3.192a29.781,29.781,0,0,0,7.292.881c.844,0,1.672-.035,2.483-.1.708,2.541,5.038,4.5,10.289,4.5a18.042,18.042,0,0,0,6.089-1A23.025,23.025,0,0,0,450,200.2a22.319,22.319,0,0,0,6.077-.824,7.192,7.192,0,0,0-.238,1.818,6.329,6.329,0,1,0,12.627,0A6.656,6.656,0,0,0,463.3,194.541Z" transform="translate(-368.47 -163.581)" fill="#c0ebe9"/>
    <path id="Path_88762" data-name="Path 88762" d="M463.3,194.465a5.286,5.286,0,0,0,.729-2.619,5.028,5.028,0,0,0-.07-.823,6.884,6.884,0,0,0,1.141-1.369c2.407-3.823.633-9.27-3.964-12.163a10.342,10.342,0,0,0-9.259-1.119c-1.966-2.625-5.6-4.484-9.855-4.813a8.615,8.615,0,0,0-5.923-2.04,10.5,10.5,0,0,0-3.046.442,19.282,19.282,0,0,0-21.831-.136,21.08,21.08,0,0,0-7.952-1.5c-7.258,0-13.323,3.389-14.821,7.916-6.243.141-11.252,4.131-11.252,9.044a7.145,7.145,0,0,0,.08,1.026c-5.07,1.172-8.81,5.184-8.81,9.967a9.415,9.415,0,0,0,2.29,6.081,9.759,9.759,0,0,0-2.29,6.267,10.434,10.434,0,0,0,20.854,0,9.685,9.685,0,0,0-1.17-4.609,9.783,9.783,0,0,0,4.026-7.739,9.1,9.1,0,0,0-.3-2.272,13.654,13.654,0,0,0,1.695-.479c1.982,2.944,7.421,5.063,13.836,5.063,4.951,0,9.32-1.263,11.971-3.192a29.782,29.782,0,0,0,7.292.881c.844,0,1.672-.035,2.483-.1.708,2.542,5.038,4.5,10.289,4.5a18.042,18.042,0,0,0,6.089-1,23.024,23.024,0,0,0,4.461.434,22.32,22.32,0,0,0,6.077-.824,7.192,7.192,0,0,0-.238,1.818,6.329,6.329,0,1,0,12.627,0A6.656,6.656,0,0,0,463.3,194.465Z" transform="translate(-368.47 -163.564)" fill="#c1ebea"/>
    <path id="Path_88763" data-name="Path 88763" d="M463.3,194.389a5.286,5.286,0,0,0,.729-2.619,5.028,5.028,0,0,0-.07-.823,6.884,6.884,0,0,0,1.141-1.369c2.407-3.823.633-9.27-3.964-12.163a10.342,10.342,0,0,0-9.259-1.118c-1.966-2.625-5.6-4.484-9.855-4.813a8.615,8.615,0,0,0-5.923-2.04,10.528,10.528,0,0,0-3.046.442,19.282,19.282,0,0,0-21.831-.136,21.08,21.08,0,0,0-7.952-1.5c-7.258,0-13.323,3.389-14.821,7.916-6.243.141-11.252,4.131-11.252,9.044a7.144,7.144,0,0,0,.08,1.026c-5.07,1.172-8.81,5.184-8.81,9.967a9.415,9.415,0,0,0,2.29,6.081,9.759,9.759,0,0,0-2.29,6.267,10.434,10.434,0,0,0,20.854,0,9.685,9.685,0,0,0-1.17-4.609,9.783,9.783,0,0,0,4.026-7.739,9.1,9.1,0,0,0-.3-2.272,13.654,13.654,0,0,0,1.695-.479c1.982,2.944,7.421,5.063,13.836,5.063,4.951,0,9.32-1.263,11.971-3.192a29.782,29.782,0,0,0,7.292.881c.844,0,1.672-.035,2.483-.1.708,2.542,5.038,4.5,10.289,4.5a18.042,18.042,0,0,0,6.089-1,23.024,23.024,0,0,0,4.461.434,22.32,22.32,0,0,0,6.077-.824,7.192,7.192,0,0,0-.238,1.818,6.329,6.329,0,1,0,12.627,0A6.656,6.656,0,0,0,463.3,194.389Z" transform="translate(-368.47 -163.547)" fill="#c2ebea"/>
    <path id="Path_88764" data-name="Path 88764" d="M463.3,194.313a5.284,5.284,0,0,0,.729-2.619,5.028,5.028,0,0,0-.07-.823A6.906,6.906,0,0,0,465.1,189.5c2.407-3.823.633-9.27-3.964-12.163a10.342,10.342,0,0,0-9.259-1.119c-1.966-2.625-5.6-4.484-9.855-4.813a8.615,8.615,0,0,0-5.923-2.04,10.528,10.528,0,0,0-3.046.442,19.282,19.282,0,0,0-21.831-.136,21.08,21.08,0,0,0-7.952-1.5c-7.258,0-13.323,3.389-14.821,7.916-6.243.141-11.252,4.131-11.252,9.044a7.144,7.144,0,0,0,.08,1.026c-5.07,1.172-8.81,5.184-8.81,9.968a9.419,9.419,0,0,0,2.29,6.081,9.755,9.755,0,0,0-2.29,6.266,10.434,10.434,0,0,0,20.854,0,9.685,9.685,0,0,0-1.17-4.609,9.783,9.783,0,0,0,4.026-7.739,9.1,9.1,0,0,0-.3-2.272,13.657,13.657,0,0,0,1.695-.479c1.982,2.945,7.421,5.063,13.836,5.063,4.951,0,9.32-1.263,11.971-3.192a29.782,29.782,0,0,0,7.292.881c.844,0,1.672-.035,2.483-.1.708,2.542,5.038,4.5,10.289,4.5a18.042,18.042,0,0,0,6.089-1,23.024,23.024,0,0,0,4.461.435,22.319,22.319,0,0,0,6.077-.825,7.192,7.192,0,0,0-.238,1.818,6.329,6.329,0,1,0,12.627,0A6.656,6.656,0,0,0,463.3,194.313Z" transform="translate(-368.47 -163.53)" fill="#c3ecea"/>
    <path id="Path_88765" data-name="Path 88765" d="M463.3,194.237a5.284,5.284,0,0,0,.729-2.619,5.028,5.028,0,0,0-.07-.823,6.884,6.884,0,0,0,1.141-1.369c2.407-3.823.633-9.27-3.964-12.163a10.342,10.342,0,0,0-9.259-1.119c-1.966-2.625-5.6-4.484-9.855-4.813a8.615,8.615,0,0,0-5.923-2.04,10.528,10.528,0,0,0-3.046.442,19.282,19.282,0,0,0-21.831-.136,21.08,21.08,0,0,0-7.952-1.5c-7.258,0-13.323,3.389-14.821,7.916-6.243.141-11.252,4.131-11.252,9.044a7.145,7.145,0,0,0,.08,1.026c-5.07,1.172-8.81,5.184-8.81,9.967a9.419,9.419,0,0,0,2.29,6.081,9.755,9.755,0,0,0-2.29,6.266,10.434,10.434,0,0,0,20.854,0,9.685,9.685,0,0,0-1.17-4.609,9.783,9.783,0,0,0,4.026-7.739,9.1,9.1,0,0,0-.3-2.272,13.657,13.657,0,0,0,1.695-.479c1.982,2.945,7.421,5.063,13.836,5.063,4.951,0,9.32-1.263,11.971-3.192a29.782,29.782,0,0,0,7.292.881c.844,0,1.672-.035,2.483-.1.708,2.542,5.038,4.5,10.289,4.5a18.042,18.042,0,0,0,6.089-1,23.023,23.023,0,0,0,4.461.435,22.319,22.319,0,0,0,6.077-.825,7.192,7.192,0,0,0-.238,1.818,6.329,6.329,0,1,0,12.627,0A6.656,6.656,0,0,0,463.3,194.237Z" transform="translate(-368.47 -163.513)" fill="#c4eceb"/>
    <path id="Path_88766" data-name="Path 88766" d="M463.3,194.161a5.284,5.284,0,0,0,.729-2.619,5.028,5.028,0,0,0-.07-.823,6.884,6.884,0,0,0,1.141-1.369c2.407-3.823.633-9.269-3.964-12.163a10.342,10.342,0,0,0-9.259-1.119c-1.966-2.625-5.6-4.484-9.855-4.813a8.619,8.619,0,0,0-5.923-2.04,10.529,10.529,0,0,0-3.046.442,19.282,19.282,0,0,0-21.831-.136,21.08,21.08,0,0,0-7.952-1.5c-7.258,0-13.323,3.388-14.821,7.916-6.243.141-11.252,4.131-11.252,9.044a7.145,7.145,0,0,0,.08,1.026c-5.07,1.172-8.81,5.184-8.81,9.967a9.419,9.419,0,0,0,2.29,6.081,9.755,9.755,0,0,0-2.29,6.266,10.434,10.434,0,0,0,20.854,0,9.685,9.685,0,0,0-1.17-4.609,9.782,9.782,0,0,0,4.026-7.739,9.1,9.1,0,0,0-.3-2.272,13.654,13.654,0,0,0,1.695-.479c1.982,2.945,7.421,5.063,13.836,5.063,4.951,0,9.32-1.263,11.971-3.192a29.782,29.782,0,0,0,7.292.881c.844,0,1.672-.035,2.483-.1.708,2.542,5.038,4.5,10.289,4.5a18.042,18.042,0,0,0,6.089-1,23.023,23.023,0,0,0,4.461.435,22.319,22.319,0,0,0,6.077-.825,7.192,7.192,0,0,0-.238,1.818,6.329,6.329,0,1,0,12.627,0A6.656,6.656,0,0,0,463.3,194.161Z" transform="translate(-368.47 -163.496)" fill="#c5eceb"/>
    <path id="Path_88767" data-name="Path 88767" d="M463.3,194.085a5.284,5.284,0,0,0,.729-2.619,5.028,5.028,0,0,0-.07-.823,6.9,6.9,0,0,0,1.141-1.369c2.407-3.824.633-9.27-3.964-12.163a10.342,10.342,0,0,0-9.259-1.119c-1.966-2.625-5.6-4.484-9.855-4.813a8.619,8.619,0,0,0-5.923-2.04,10.528,10.528,0,0,0-3.046.442,19.282,19.282,0,0,0-21.831-.136,21.08,21.08,0,0,0-7.952-1.5c-7.258,0-13.323,3.388-14.821,7.916-6.243.141-11.252,4.131-11.252,9.044a7.144,7.144,0,0,0,.08,1.026c-5.07,1.172-8.81,5.184-8.81,9.967a9.419,9.419,0,0,0,2.29,6.081,9.755,9.755,0,0,0-2.29,6.266,10.434,10.434,0,0,0,20.854,0,9.685,9.685,0,0,0-1.17-4.609,9.782,9.782,0,0,0,4.026-7.739,9.1,9.1,0,0,0-.3-2.272,13.657,13.657,0,0,0,1.695-.479c1.982,2.945,7.421,5.063,13.836,5.063,4.951,0,9.32-1.263,11.971-3.192a29.782,29.782,0,0,0,7.292.881c.844,0,1.672-.035,2.483-.1.708,2.542,5.038,4.5,10.289,4.5a18.042,18.042,0,0,0,6.089-1,23.024,23.024,0,0,0,4.461.435,22.319,22.319,0,0,0,6.077-.825,7.192,7.192,0,0,0-.238,1.818,6.329,6.329,0,1,0,12.627,0A6.656,6.656,0,0,0,463.3,194.085Z" transform="translate(-368.47 -163.478)" fill="#c6edeb"/>
    <path id="Path_88768" data-name="Path 88768" d="M463.3,194.009a5.284,5.284,0,0,0,.729-2.619,5.028,5.028,0,0,0-.07-.823A6.9,6.9,0,0,0,465.1,189.2c2.407-3.824.633-9.27-3.964-12.163a10.342,10.342,0,0,0-9.259-1.119c-1.966-2.625-5.6-4.484-9.855-4.813a8.619,8.619,0,0,0-5.923-2.04,10.528,10.528,0,0,0-3.046.442,19.282,19.282,0,0,0-21.831-.136,21.08,21.08,0,0,0-7.952-1.5c-7.258,0-13.323,3.388-14.821,7.916-6.243.141-11.252,4.131-11.252,9.044a7.144,7.144,0,0,0,.08,1.026c-5.07,1.172-8.81,5.184-8.81,9.968a9.419,9.419,0,0,0,2.29,6.081,9.755,9.755,0,0,0-2.29,6.266,10.434,10.434,0,0,0,20.854,0,9.685,9.685,0,0,0-1.17-4.609,9.782,9.782,0,0,0,4.026-7.739,9.1,9.1,0,0,0-.3-2.272,13.657,13.657,0,0,0,1.695-.479c1.982,2.945,7.421,5.063,13.836,5.063,4.951,0,9.32-1.263,11.971-3.192a29.782,29.782,0,0,0,7.292.881c.844,0,1.672-.035,2.483-.1.708,2.542,5.038,4.5,10.289,4.5a18.023,18.023,0,0,0,6.089-1,23.023,23.023,0,0,0,4.461.435,22.319,22.319,0,0,0,6.077-.825,7.192,7.192,0,0,0-.238,1.818,6.329,6.329,0,1,0,12.627,0A6.656,6.656,0,0,0,463.3,194.009Z" transform="translate(-368.47 -163.461)" fill="#c7edec"/>
    <path id="Path_88769" data-name="Path 88769" d="M463.3,193.933a5.284,5.284,0,0,0,.729-2.619,5.028,5.028,0,0,0-.07-.823,6.9,6.9,0,0,0,1.141-1.369c2.407-3.824.633-9.27-3.964-12.163a10.342,10.342,0,0,0-9.259-1.119c-1.966-2.625-5.6-4.484-9.855-4.813a8.619,8.619,0,0,0-5.923-2.04,10.529,10.529,0,0,0-3.046.442,19.282,19.282,0,0,0-21.831-.136,21.08,21.08,0,0,0-7.952-1.5c-7.258,0-13.323,3.388-14.821,7.916-6.243.141-11.252,4.131-11.252,9.044a7.145,7.145,0,0,0,.08,1.026c-5.07,1.172-8.81,5.184-8.81,9.967a9.419,9.419,0,0,0,2.29,6.081,9.757,9.757,0,0,0-2.29,6.266,10.434,10.434,0,0,0,20.854,0,9.685,9.685,0,0,0-1.17-4.609,9.782,9.782,0,0,0,4.026-7.739,9.1,9.1,0,0,0-.3-2.272,13.654,13.654,0,0,0,1.695-.479c1.982,2.945,7.421,5.063,13.836,5.063,4.951,0,9.32-1.263,11.971-3.192a29.782,29.782,0,0,0,7.292.881c.844,0,1.672-.035,2.483-.1.708,2.542,5.038,4.5,10.289,4.5a18.023,18.023,0,0,0,6.089-1,23.023,23.023,0,0,0,4.461.435,22.319,22.319,0,0,0,6.077-.825,7.192,7.192,0,0,0-.238,1.818,6.329,6.329,0,1,0,12.627,0A6.656,6.656,0,0,0,463.3,193.933Z" transform="translate(-368.47 -163.444)" fill="#c8edec"/>
    <path id="Path_88770" data-name="Path 88770" d="M463.3,193.857a5.284,5.284,0,0,0,.729-2.619,5.028,5.028,0,0,0-.07-.823,6.9,6.9,0,0,0,1.141-1.369c2.407-3.824.633-9.27-3.964-12.163a10.342,10.342,0,0,0-9.259-1.119c-1.966-2.625-5.6-4.484-9.855-4.813a8.619,8.619,0,0,0-5.923-2.039,10.53,10.53,0,0,0-3.046.441,19.282,19.282,0,0,0-21.831-.136,21.079,21.079,0,0,0-7.952-1.5c-7.258,0-13.323,3.388-14.821,7.916-6.243.141-11.252,4.131-11.252,9.044a7.144,7.144,0,0,0,.08,1.026c-5.07,1.172-8.81,5.184-8.81,9.967a9.419,9.419,0,0,0,2.29,6.081,9.757,9.757,0,0,0-2.29,6.266,10.434,10.434,0,0,0,20.854,0,9.685,9.685,0,0,0-1.17-4.609,9.781,9.781,0,0,0,4.026-7.739,9.1,9.1,0,0,0-.3-2.272,13.657,13.657,0,0,0,1.695-.479c1.982,2.945,7.421,5.063,13.836,5.063,4.951,0,9.32-1.263,11.971-3.192a29.782,29.782,0,0,0,7.292.881c.844,0,1.672-.035,2.483-.1.708,2.542,5.038,4.5,10.289,4.5a18.023,18.023,0,0,0,6.089-1,23.023,23.023,0,0,0,4.461.435,22.319,22.319,0,0,0,6.077-.825,7.192,7.192,0,0,0-.238,1.818,6.329,6.329,0,1,0,12.627,0A6.656,6.656,0,0,0,463.3,193.857Z" transform="translate(-368.47 -163.427)" fill="#c9eeec"/>
    <path id="Path_88771" data-name="Path 88771" d="M463.3,193.781a5.284,5.284,0,0,0,.729-2.619,5.028,5.028,0,0,0-.07-.823,6.9,6.9,0,0,0,1.141-1.369c2.407-3.824.633-9.27-3.964-12.163a10.342,10.342,0,0,0-9.259-1.119c-1.966-2.625-5.6-4.484-9.855-4.813a8.619,8.619,0,0,0-5.923-2.039,10.528,10.528,0,0,0-3.046.441,19.282,19.282,0,0,0-21.831-.136,21.08,21.08,0,0,0-7.952-1.5c-7.258,0-13.323,3.388-14.821,7.916-6.243.141-11.252,4.131-11.252,9.044a7.136,7.136,0,0,0,.08,1.026c-5.07,1.172-8.81,5.184-8.81,9.968a9.419,9.419,0,0,0,2.29,6.081,9.756,9.756,0,0,0-2.29,6.266,10.434,10.434,0,0,0,20.854,0,9.685,9.685,0,0,0-1.17-4.609,9.781,9.781,0,0,0,4.026-7.739,9.088,9.088,0,0,0-.3-2.271,13.792,13.792,0,0,0,1.695-.48c1.982,2.945,7.421,5.063,13.836,5.063,4.951,0,9.32-1.263,11.971-3.192a29.782,29.782,0,0,0,7.292.881c.844,0,1.672-.035,2.483-.1.708,2.541,5.038,4.5,10.289,4.5a18.023,18.023,0,0,0,6.089-1,22.963,22.963,0,0,0,4.461.435,22.319,22.319,0,0,0,6.077-.825,7.192,7.192,0,0,0-.238,1.818,6.329,6.329,0,1,0,12.627,0A6.656,6.656,0,0,0,463.3,193.781Z" transform="translate(-368.47 -163.41)" fill="#caeeed"/>
    <path id="Path_88772" data-name="Path 88772" d="M463.3,193.705a5.284,5.284,0,0,0,.729-2.619,5.028,5.028,0,0,0-.07-.823,6.9,6.9,0,0,0,1.141-1.369c2.407-3.824.633-9.27-3.964-12.163a10.342,10.342,0,0,0-9.259-1.119c-1.966-2.625-5.6-4.484-9.855-4.812a8.615,8.615,0,0,0-5.923-2.04,10.528,10.528,0,0,0-3.046.441,19.282,19.282,0,0,0-21.831-.136,21.08,21.08,0,0,0-7.952-1.5c-7.258,0-13.323,3.388-14.821,7.916-6.243.142-11.252,4.131-11.252,9.044a7.145,7.145,0,0,0,.08,1.026c-5.07,1.172-8.81,5.184-8.81,9.967a9.419,9.419,0,0,0,2.29,6.081,9.757,9.757,0,0,0-2.29,6.266,10.434,10.434,0,0,0,20.854,0,9.685,9.685,0,0,0-1.17-4.609,9.781,9.781,0,0,0,4.026-7.739,9.088,9.088,0,0,0-.3-2.271,13.792,13.792,0,0,0,1.695-.48c1.982,2.945,7.421,5.063,13.836,5.063,4.951,0,9.32-1.263,11.971-3.192a29.781,29.781,0,0,0,7.292.881c.844,0,1.672-.035,2.483-.1.708,2.542,5.038,4.5,10.289,4.5a18.023,18.023,0,0,0,6.089-1,22.963,22.963,0,0,0,4.461.435,22.319,22.319,0,0,0,6.077-.825,7.193,7.193,0,0,0-.238,1.819,6.329,6.329,0,1,0,12.627,0A6.657,6.657,0,0,0,463.3,193.705Z" transform="translate(-368.47 -163.393)" fill="#cbefed"/>
    <path id="Path_88773" data-name="Path 88773" d="M463.3,193.629a5.284,5.284,0,0,0,.729-2.619,5.028,5.028,0,0,0-.07-.823,6.9,6.9,0,0,0,1.141-1.369c2.407-3.824.633-9.27-3.964-12.163a10.342,10.342,0,0,0-9.259-1.119c-1.966-2.625-5.6-4.484-9.855-4.812a8.615,8.615,0,0,0-5.923-2.04,10.53,10.53,0,0,0-3.046.441,19.282,19.282,0,0,0-21.831-.136,21.08,21.08,0,0,0-7.952-1.5c-7.258,0-13.323,3.388-14.821,7.916-6.243.142-11.252,4.132-11.252,9.044a7.136,7.136,0,0,0,.08,1.026c-5.07,1.173-8.81,5.184-8.81,9.967a9.419,9.419,0,0,0,2.29,6.081,9.757,9.757,0,0,0-2.29,6.266,10.434,10.434,0,0,0,20.854,0,9.685,9.685,0,0,0-1.17-4.609,9.781,9.781,0,0,0,4.026-7.739,9.088,9.088,0,0,0-.3-2.271,13.791,13.791,0,0,0,1.695-.48c1.982,2.945,7.421,5.064,13.836,5.064,4.951,0,9.32-1.263,11.971-3.193a29.782,29.782,0,0,0,7.292.881c.844,0,1.672-.035,2.483-.1.708,2.541,5.038,4.5,10.289,4.5a18.023,18.023,0,0,0,6.089-1,22.961,22.961,0,0,0,4.461.435,22.319,22.319,0,0,0,6.077-.825,7.193,7.193,0,0,0-.238,1.819,6.329,6.329,0,1,0,12.627,0A6.657,6.657,0,0,0,463.3,193.629Z" transform="translate(-368.47 -163.376)" fill="#ccefed"/>
    <path id="Path_88774" data-name="Path 88774" d="M463.3,193.553a5.284,5.284,0,0,0,.729-2.619,5.028,5.028,0,0,0-.07-.823,6.9,6.9,0,0,0,1.141-1.369c2.407-3.824.633-9.27-3.964-12.163a10.342,10.342,0,0,0-9.259-1.119c-1.966-2.625-5.6-4.484-9.855-4.812a8.615,8.615,0,0,0-5.923-2.04,10.528,10.528,0,0,0-3.046.441,19.282,19.282,0,0,0-21.831-.136,21.08,21.08,0,0,0-7.952-1.5c-7.258,0-13.323,3.389-14.821,7.916-6.243.142-11.252,4.132-11.252,9.044a7.136,7.136,0,0,0,.08,1.026c-5.07,1.173-8.81,5.184-8.81,9.967a9.419,9.419,0,0,0,2.29,6.081,9.757,9.757,0,0,0-2.29,6.266,10.434,10.434,0,0,0,20.854,0,9.685,9.685,0,0,0-1.17-4.609,9.781,9.781,0,0,0,4.026-7.739,9.088,9.088,0,0,0-.3-2.271,13.928,13.928,0,0,0,1.695-.479c1.982,2.944,7.421,5.063,13.836,5.063,4.951,0,9.32-1.263,11.971-3.193a29.783,29.783,0,0,0,7.292.881c.844,0,1.672-.035,2.483-.1.708,2.541,5.038,4.5,10.289,4.5a18.023,18.023,0,0,0,6.089-1,22.963,22.963,0,0,0,4.461.435,22.319,22.319,0,0,0,6.077-.825,7.193,7.193,0,0,0-.238,1.819,6.329,6.329,0,1,0,12.627,0A6.657,6.657,0,0,0,463.3,193.553Z" transform="translate(-368.47 -163.359)" fill="#cdefee"/>
    <path id="Path_88775" data-name="Path 88775" d="M463.3,193.477a5.283,5.283,0,0,0,.729-2.618,5.037,5.037,0,0,0-.07-.824,6.9,6.9,0,0,0,1.141-1.369c2.407-3.824.633-9.27-3.964-12.163a10.342,10.342,0,0,0-9.259-1.119c-1.966-2.625-5.6-4.484-9.855-4.812a8.615,8.615,0,0,0-5.923-2.04,10.528,10.528,0,0,0-3.046.441,19.282,19.282,0,0,0-21.831-.136,21.08,21.08,0,0,0-7.952-1.5c-7.258,0-13.323,3.389-14.821,7.916-6.243.142-11.252,4.132-11.252,9.044a7.136,7.136,0,0,0,.08,1.026c-5.07,1.173-8.81,5.184-8.81,9.967a9.419,9.419,0,0,0,2.29,6.081,9.757,9.757,0,0,0-2.29,6.266,10.434,10.434,0,0,0,20.854,0,9.685,9.685,0,0,0-1.17-4.609,9.781,9.781,0,0,0,4.026-7.739,9.088,9.088,0,0,0-.3-2.271,13.792,13.792,0,0,0,1.695-.48c1.982,2.945,7.421,5.064,13.836,5.064,4.951,0,9.32-1.263,11.971-3.192a29.82,29.82,0,0,0,7.292.88c.844,0,1.672-.035,2.483-.1.708,2.541,5.038,4.5,10.289,4.5a18.023,18.023,0,0,0,6.089-1,22.963,22.963,0,0,0,4.461.435,22.319,22.319,0,0,0,6.077-.825,7.193,7.193,0,0,0-.238,1.819,6.329,6.329,0,1,0,12.627,0A6.657,6.657,0,0,0,463.3,193.477Z" transform="translate(-368.47 -163.341)" fill="#cef0ee"/>
    <path id="Path_88776" data-name="Path 88776" d="M463.3,193.4a5.288,5.288,0,0,0,.729-2.619,5.038,5.038,0,0,0-.07-.824,6.9,6.9,0,0,0,1.141-1.369c2.407-3.824.633-9.27-3.964-12.163a10.342,10.342,0,0,0-9.259-1.119c-1.966-2.625-5.6-4.483-9.855-4.812a8.615,8.615,0,0,0-5.923-2.039,10.53,10.53,0,0,0-3.046.441,19.282,19.282,0,0,0-21.831-.136,21.08,21.08,0,0,0-7.952-1.5c-7.258,0-13.323,3.389-14.821,7.916-6.243.142-11.252,4.132-11.252,9.044a7.156,7.156,0,0,0,.08,1.026c-5.07,1.172-8.81,5.184-8.81,9.967a9.419,9.419,0,0,0,2.29,6.081,9.757,9.757,0,0,0-2.29,6.266,10.434,10.434,0,0,0,20.854,0,9.685,9.685,0,0,0-1.17-4.609,9.781,9.781,0,0,0,4.026-7.739,9.088,9.088,0,0,0-.3-2.271,13.926,13.926,0,0,0,1.695-.479c1.982,2.944,7.421,5.063,13.836,5.063,4.951,0,9.32-1.263,11.971-3.192a29.82,29.82,0,0,0,7.292.88c.844,0,1.672-.035,2.483-.1.708,2.541,5.038,4.5,10.289,4.5a18.023,18.023,0,0,0,6.089-1,22.961,22.961,0,0,0,4.461.435,22.289,22.289,0,0,0,6.077-.825,7.193,7.193,0,0,0-.238,1.819,6.329,6.329,0,1,0,12.627,0A6.655,6.655,0,0,0,463.3,193.4Z" transform="translate(-368.47 -163.324)" fill="#cff0ee"/>
    <path id="Path_88777" data-name="Path 88777" d="M463.3,193.326a5.286,5.286,0,0,0,.729-2.619,5.038,5.038,0,0,0-.07-.824,6.9,6.9,0,0,0,1.141-1.369c2.407-3.824.633-9.27-3.964-12.163a10.342,10.342,0,0,0-9.259-1.119c-1.966-2.625-5.6-4.483-9.855-4.812a8.615,8.615,0,0,0-5.923-2.04,10.528,10.528,0,0,0-3.046.441,19.282,19.282,0,0,0-21.831-.136,21.08,21.08,0,0,0-7.952-1.5c-7.258,0-13.323,3.389-14.821,7.916-6.243.142-11.252,4.132-11.252,9.044a7.155,7.155,0,0,0,.08,1.026c-5.07,1.172-8.81,5.184-8.81,9.967a9.419,9.419,0,0,0,2.29,6.081,9.757,9.757,0,0,0-2.29,6.266,10.434,10.434,0,0,0,20.854,0,9.685,9.685,0,0,0-1.17-4.609,9.781,9.781,0,0,0,4.026-7.739,9.088,9.088,0,0,0-.3-2.271,13.928,13.928,0,0,0,1.695-.479c1.982,2.944,7.421,5.063,13.836,5.063,4.951,0,9.32-1.263,11.971-3.192a29.82,29.82,0,0,0,7.292.88c.844,0,1.672-.035,2.483-.1.708,2.541,5.038,4.5,10.289,4.5a18.023,18.023,0,0,0,6.089-1,22.963,22.963,0,0,0,4.461.435,22.289,22.289,0,0,0,6.077-.825,7.193,7.193,0,0,0-.238,1.819,6.329,6.329,0,1,0,12.627,0A6.655,6.655,0,0,0,463.3,193.326Z" transform="translate(-368.47 -163.307)" fill="#d0f0ef"/>
    <path id="Path_88778" data-name="Path 88778" d="M463.3,193.25a5.286,5.286,0,0,0,.729-2.619,5.038,5.038,0,0,0-.07-.824,6.9,6.9,0,0,0,1.141-1.369c2.407-3.824.633-9.27-3.964-12.163a10.342,10.342,0,0,0-9.259-1.119c-1.966-2.625-5.6-4.483-9.855-4.812a8.615,8.615,0,0,0-5.923-2.04,10.528,10.528,0,0,0-3.046.441,19.282,19.282,0,0,0-21.831-.136,21.08,21.08,0,0,0-7.952-1.5c-7.258,0-13.323,3.389-14.821,7.916-6.243.142-11.252,4.132-11.252,9.045a7.153,7.153,0,0,0,.08,1.026c-5.07,1.172-8.81,5.184-8.81,9.967a9.415,9.415,0,0,0,2.29,6.081,9.757,9.757,0,0,0-2.29,6.266,10.434,10.434,0,0,0,20.854,0,9.685,9.685,0,0,0-1.17-4.609,9.781,9.781,0,0,0,4.026-7.739,9.088,9.088,0,0,0-.3-2.271,13.928,13.928,0,0,0,1.695-.479c1.982,2.944,7.421,5.063,13.836,5.063,4.951,0,9.32-1.263,11.971-3.192a29.783,29.783,0,0,0,7.292.88c.844,0,1.672-.035,2.483-.1.708,2.541,5.038,4.5,10.289,4.5a18.023,18.023,0,0,0,6.089-1,22.963,22.963,0,0,0,4.461.435,22.289,22.289,0,0,0,6.077-.825,7.194,7.194,0,0,0-.238,1.819,6.329,6.329,0,1,0,12.627,0A6.655,6.655,0,0,0,463.3,193.25Z" transform="translate(-368.47 -163.29)" fill="#d1f1ef"/>
    <path id="Path_88779" data-name="Path 88779" d="M463.3,193.174a5.288,5.288,0,0,0,.729-2.619,5.038,5.038,0,0,0-.07-.824,6.9,6.9,0,0,0,1.141-1.369c2.407-3.824.633-9.27-3.964-12.163a10.342,10.342,0,0,0-9.259-1.119c-1.966-2.625-5.6-4.483-9.855-4.812a8.615,8.615,0,0,0-5.923-2.039,10.528,10.528,0,0,0-3.046.441,19.282,19.282,0,0,0-21.831-.136,21.08,21.08,0,0,0-7.952-1.5c-7.258,0-13.323,3.389-14.821,7.916-6.243.142-11.252,4.132-11.252,9.045a7.145,7.145,0,0,0,.08,1.026c-5.07,1.172-8.81,5.184-8.81,9.967a9.415,9.415,0,0,0,2.29,6.081,9.757,9.757,0,0,0-2.29,6.266,10.434,10.434,0,0,0,20.854,0,9.685,9.685,0,0,0-1.17-4.609,9.781,9.781,0,0,0,4.026-7.739,9.088,9.088,0,0,0-.3-2.271,13.926,13.926,0,0,0,1.695-.479c1.982,2.944,7.421,5.063,13.836,5.063,4.951,0,9.32-1.263,11.971-3.192a29.783,29.783,0,0,0,7.292.88c.844,0,1.672-.035,2.483-.1.708,2.541,5.038,4.5,10.289,4.5a18.023,18.023,0,0,0,6.089-1,22.963,22.963,0,0,0,4.461.435,22.289,22.289,0,0,0,6.077-.825,7.193,7.193,0,0,0-.238,1.819,6.329,6.329,0,1,0,12.627,0A6.656,6.656,0,0,0,463.3,193.174Z" transform="translate(-368.47 -163.273)" fill="#d2f1ef"/>
    <path id="Path_88780" data-name="Path 88780" d="M463.3,193.1a5.286,5.286,0,0,0,.729-2.619,5.038,5.038,0,0,0-.07-.824,6.9,6.9,0,0,0,1.141-1.369c2.407-3.824.633-9.27-3.964-12.163A10.342,10.342,0,0,0,451.881,175c-1.966-2.625-5.6-4.483-9.855-4.812a8.615,8.615,0,0,0-5.923-2.04,10.528,10.528,0,0,0-3.046.441,19.282,19.282,0,0,0-21.831-.136,21.08,21.08,0,0,0-7.952-1.5c-7.258,0-13.323,3.389-14.821,7.916-6.243.141-11.252,4.131-11.252,9.044a7.144,7.144,0,0,0,.08,1.026c-5.07,1.172-8.81,5.184-8.81,9.967A9.417,9.417,0,0,0,370.76,201a9.757,9.757,0,0,0-2.29,6.266,10.434,10.434,0,0,0,20.854,0,9.685,9.685,0,0,0-1.17-4.609,9.781,9.781,0,0,0,4.026-7.739,9.088,9.088,0,0,0-.3-2.271,13.793,13.793,0,0,0,1.695-.479c1.982,2.944,7.421,5.063,13.836,5.063,4.951,0,9.32-1.263,11.971-3.192a29.783,29.783,0,0,0,7.292.88c.844,0,1.672-.035,2.483-.1.708,2.541,5.038,4.5,10.289,4.5a18.023,18.023,0,0,0,6.089-1,22.963,22.963,0,0,0,4.461.435,22.289,22.289,0,0,0,6.077-.825,7.193,7.193,0,0,0-.238,1.819,6.329,6.329,0,1,0,12.627,0A6.656,6.656,0,0,0,463.3,193.1Z" transform="translate(-368.47 -163.256)" fill="#d3f1f0"/>
    <path id="Path_88781" data-name="Path 88781" d="M463.3,193.022a5.286,5.286,0,0,0,.729-2.619,5.037,5.037,0,0,0-.07-.824,6.9,6.9,0,0,0,1.141-1.369c2.407-3.824.633-9.27-3.964-12.163a10.344,10.344,0,0,0-9.259-1.119c-1.966-2.625-5.6-4.483-9.855-4.812a8.615,8.615,0,0,0-5.923-2.04,10.529,10.529,0,0,0-3.046.441,19.285,19.285,0,0,0-21.831-.136,21.08,21.08,0,0,0-7.952-1.5c-7.258,0-13.323,3.389-14.821,7.916-6.243.141-11.252,4.131-11.252,9.044a7.144,7.144,0,0,0,.08,1.026c-5.07,1.172-8.81,5.184-8.81,9.967a9.415,9.415,0,0,0,2.29,6.081,9.757,9.757,0,0,0-2.29,6.266,10.434,10.434,0,0,0,20.854,0,9.685,9.685,0,0,0-1.17-4.609,9.781,9.781,0,0,0,4.026-7.739,9.1,9.1,0,0,0-.3-2.271,13.793,13.793,0,0,0,1.695-.479c1.982,2.944,7.421,5.063,13.836,5.063,4.951,0,9.32-1.263,11.971-3.192a29.783,29.783,0,0,0,7.292.88c.844,0,1.672-.035,2.483-.1.708,2.541,5.038,4.5,10.289,4.5a18.023,18.023,0,0,0,6.089-1,22.962,22.962,0,0,0,4.461.435,22.289,22.289,0,0,0,6.077-.825,7.194,7.194,0,0,0-.238,1.819,6.329,6.329,0,1,0,12.627,0A6.656,6.656,0,0,0,463.3,193.022Z" transform="translate(-368.47 -163.239)" fill="#d4f2f0"/>
    <path id="Path_88782" data-name="Path 88782" d="M463.3,192.946a5.286,5.286,0,0,0,.729-2.619,5.02,5.02,0,0,0-.07-.823,6.928,6.928,0,0,0,1.141-1.369c2.407-3.824.633-9.27-3.964-12.163a10.344,10.344,0,0,0-9.259-1.119c-1.966-2.625-5.6-4.483-9.855-4.812A8.615,8.615,0,0,0,436.1,168a10.528,10.528,0,0,0-3.046.441,19.282,19.282,0,0,0-21.831-.136,21.08,21.08,0,0,0-7.952-1.5c-7.258,0-13.323,3.389-14.821,7.916-6.243.141-11.252,4.131-11.252,9.044a7.145,7.145,0,0,0,.08,1.026c-5.07,1.172-8.81,5.184-8.81,9.967a9.415,9.415,0,0,0,2.29,6.081,9.758,9.758,0,0,0-2.29,6.266,10.434,10.434,0,0,0,20.854,0,9.685,9.685,0,0,0-1.17-4.609,9.781,9.781,0,0,0,4.026-7.738,9.094,9.094,0,0,0-.3-2.272,13.79,13.79,0,0,0,1.695-.479c1.982,2.944,7.421,5.063,13.836,5.063,4.951,0,9.32-1.263,11.971-3.192a29.782,29.782,0,0,0,7.292.881c.844,0,1.672-.036,2.483-.1.708,2.541,5.038,4.5,10.289,4.5a18.042,18.042,0,0,0,6.089-1A23.024,23.024,0,0,0,450,198.6a22.289,22.289,0,0,0,6.077-.825,7.193,7.193,0,0,0-.238,1.819,6.329,6.329,0,1,0,12.627,0A6.656,6.656,0,0,0,463.3,192.946Z" transform="translate(-368.47 -163.221)" fill="#d5f2f0"/>
    <path id="Path_88783" data-name="Path 88783" d="M463.3,192.87a5.286,5.286,0,0,0,.729-2.619,5.021,5.021,0,0,0-.07-.823,6.905,6.905,0,0,0,1.141-1.369c2.407-3.824.633-9.27-3.964-12.163a10.344,10.344,0,0,0-9.259-1.119c-1.966-2.625-5.6-4.483-9.855-4.812a8.615,8.615,0,0,0-5.923-2.04,10.5,10.5,0,0,0-3.046.442,19.28,19.28,0,0,0-21.831-.136,21.1,21.1,0,0,0-7.952-1.5c-7.258,0-13.323,3.389-14.821,7.916-6.243.141-11.252,4.131-11.252,9.044a7.144,7.144,0,0,0,.08,1.026c-5.07,1.172-8.81,5.184-8.81,9.967a9.415,9.415,0,0,0,2.29,6.081,9.758,9.758,0,0,0-2.29,6.266,10.434,10.434,0,0,0,20.854,0,9.685,9.685,0,0,0-1.17-4.609,9.781,9.781,0,0,0,4.026-7.739,9.093,9.093,0,0,0-.3-2.271,13.793,13.793,0,0,0,1.695-.479C395.56,194.881,401,197,407.414,197c4.951,0,9.32-1.263,11.971-3.192a29.783,29.783,0,0,0,7.292.88c.844,0,1.672-.035,2.483-.1.708,2.541,5.038,4.5,10.289,4.5a18.043,18.043,0,0,0,6.089-1,23.024,23.024,0,0,0,4.461.434,22.289,22.289,0,0,0,6.077-.825,7.2,7.2,0,0,0-.238,1.819,6.329,6.329,0,1,0,12.627,0A6.656,6.656,0,0,0,463.3,192.87Z" transform="translate(-368.47 -163.204)" fill="#d6f3f1"/>
    <path id="Path_88784" data-name="Path 88784" d="M463.3,192.794a5.286,5.286,0,0,0,.729-2.619,5.028,5.028,0,0,0-.07-.823,6.905,6.905,0,0,0,1.141-1.369c2.407-3.824.633-9.27-3.964-12.163a10.344,10.344,0,0,0-9.259-1.119c-1.966-2.625-5.6-4.483-9.855-4.812a8.615,8.615,0,0,0-5.923-2.04,10.5,10.5,0,0,0-3.046.442,19.284,19.284,0,0,0-21.831-.136,21.1,21.1,0,0,0-7.952-1.5c-7.258,0-13.323,3.389-14.821,7.916-6.243.141-11.252,4.131-11.252,9.044a7.144,7.144,0,0,0,.08,1.026c-5.07,1.172-8.81,5.184-8.81,9.967a9.415,9.415,0,0,0,2.29,6.081,9.758,9.758,0,0,0-2.29,6.266,10.434,10.434,0,0,0,20.854,0,9.685,9.685,0,0,0-1.17-4.609,9.781,9.781,0,0,0,4.026-7.739,9.1,9.1,0,0,0-.3-2.271,13.79,13.79,0,0,0,1.695-.479c1.982,2.944,7.421,5.063,13.836,5.063,4.951,0,9.32-1.263,11.971-3.192a29.783,29.783,0,0,0,7.292.88c.844,0,1.672-.035,2.483-.1.708,2.541,5.038,4.5,10.289,4.5a18.043,18.043,0,0,0,6.089-1,23.024,23.024,0,0,0,4.461.434,22.289,22.289,0,0,0,6.077-.825,7.2,7.2,0,0,0-.238,1.819,6.329,6.329,0,1,0,12.627,0A6.656,6.656,0,0,0,463.3,192.794Z" transform="translate(-368.47 -163.187)" fill="#d6f3f1"/>
    <path id="Path_88785" data-name="Path 88785" d="M463.3,192.718a5.286,5.286,0,0,0,.729-2.619,5.028,5.028,0,0,0-.07-.823,6.906,6.906,0,0,0,1.141-1.369c2.407-3.823.633-9.27-3.964-12.163a10.344,10.344,0,0,0-9.259-1.119c-1.966-2.625-5.6-4.483-9.855-4.812a8.615,8.615,0,0,0-5.923-2.04,10.5,10.5,0,0,0-3.046.442,19.284,19.284,0,0,0-21.831-.136,21.1,21.1,0,0,0-7.952-1.5c-7.258,0-13.323,3.389-14.821,7.916-6.243.141-11.252,4.131-11.252,9.044a7.144,7.144,0,0,0,.08,1.026c-5.07,1.172-8.81,5.184-8.81,9.967a9.415,9.415,0,0,0,2.29,6.081,9.758,9.758,0,0,0-2.29,6.266,10.434,10.434,0,0,0,20.854,0,9.688,9.688,0,0,0-1.17-4.609,9.781,9.781,0,0,0,4.026-7.738,9.1,9.1,0,0,0-.3-2.272,13.793,13.793,0,0,0,1.695-.479c1.982,2.944,7.421,5.063,13.836,5.063,4.951,0,9.32-1.263,11.971-3.192a29.781,29.781,0,0,0,7.292.881c.844,0,1.672-.036,2.483-.1.708,2.541,5.038,4.5,10.289,4.5a18.043,18.043,0,0,0,6.089-1,23.024,23.024,0,0,0,4.461.434,22.289,22.289,0,0,0,6.077-.825,7.2,7.2,0,0,0-.238,1.819,6.329,6.329,0,1,0,12.627,0A6.656,6.656,0,0,0,463.3,192.718Z" transform="translate(-368.47 -163.17)" fill="#d7f3f1"/>
    <path id="Path_88786" data-name="Path 88786" d="M463.3,192.642a5.286,5.286,0,0,0,.729-2.619,5.028,5.028,0,0,0-.07-.823,6.905,6.905,0,0,0,1.141-1.369c2.407-3.823.633-9.27-3.964-12.163a10.342,10.342,0,0,0-9.259-1.119c-1.966-2.624-5.6-4.483-9.855-4.812A8.615,8.615,0,0,0,436.1,167.7a10.5,10.5,0,0,0-3.046.441A19.284,19.284,0,0,0,411.225,168a21.1,21.1,0,0,0-7.952-1.5c-7.258,0-13.323,3.389-14.821,7.916-6.243.141-11.252,4.131-11.252,9.044a7.144,7.144,0,0,0,.08,1.026c-5.07,1.172-8.81,5.184-8.81,9.967a9.415,9.415,0,0,0,2.29,6.081,9.758,9.758,0,0,0-2.29,6.266,10.434,10.434,0,0,0,20.854,0,9.682,9.682,0,0,0-1.17-4.608,9.783,9.783,0,0,0,4.026-7.739,9.1,9.1,0,0,0-.3-2.272,13.79,13.79,0,0,0,1.695-.479c1.982,2.944,7.421,5.063,13.836,5.063,4.951,0,9.32-1.263,11.971-3.192a29.782,29.782,0,0,0,7.292.881c.844,0,1.672-.036,2.483-.1.708,2.541,5.038,4.5,10.289,4.5a18.042,18.042,0,0,0,6.089-1A23.024,23.024,0,0,0,450,198.3a22.289,22.289,0,0,0,6.077-.825,7.2,7.2,0,0,0-.238,1.819,6.329,6.329,0,1,0,12.627,0A6.656,6.656,0,0,0,463.3,192.642Z" transform="translate(-368.47 -163.153)" fill="#d8f4f1"/>
    <path id="Path_88787" data-name="Path 88787" d="M463.3,192.566a5.286,5.286,0,0,0,.729-2.619,5.028,5.028,0,0,0-.07-.823,6.905,6.905,0,0,0,1.141-1.369c2.407-3.823.633-9.27-3.964-12.163a10.342,10.342,0,0,0-9.259-1.119c-1.966-2.624-5.6-4.483-9.855-4.812a8.615,8.615,0,0,0-5.923-2.04,10.5,10.5,0,0,0-3.046.442,19.284,19.284,0,0,0-21.831-.136,21.1,21.1,0,0,0-7.952-1.5c-7.258,0-13.323,3.389-14.821,7.916-6.243.141-11.252,4.131-11.252,9.044a7.144,7.144,0,0,0,.08,1.026c-5.07,1.172-8.81,5.184-8.81,9.967a9.415,9.415,0,0,0,2.29,6.081,9.758,9.758,0,0,0-2.29,6.266,10.434,10.434,0,0,0,20.854,0,9.684,9.684,0,0,0-1.17-4.608,9.783,9.783,0,0,0,4.026-7.739,9.1,9.1,0,0,0-.3-2.272,13.654,13.654,0,0,0,1.695-.479c1.982,2.944,7.421,5.063,13.836,5.063,4.951,0,9.32-1.263,11.971-3.192a29.782,29.782,0,0,0,7.292.881c.844,0,1.672-.036,2.483-.1.708,2.541,5.038,4.5,10.289,4.5a18.043,18.043,0,0,0,6.089-1,23.025,23.025,0,0,0,4.461.434,22.289,22.289,0,0,0,6.077-.825,7.2,7.2,0,0,0-.238,1.819,6.329,6.329,0,1,0,12.627,0A6.656,6.656,0,0,0,463.3,192.566Z" transform="translate(-368.47 -163.136)" fill="#d9f4f2"/>
    <path id="Path_88788" data-name="Path 88788" d="M463.3,192.49a5.286,5.286,0,0,0,.729-2.619,5.028,5.028,0,0,0-.07-.823,6.906,6.906,0,0,0,1.141-1.369c2.407-3.823.633-9.27-3.964-12.163a10.342,10.342,0,0,0-9.259-1.119c-1.966-2.624-5.6-4.483-9.855-4.812a8.615,8.615,0,0,0-5.923-2.04,10.5,10.5,0,0,0-3.046.442,19.284,19.284,0,0,0-21.831-.136,21.1,21.1,0,0,0-7.952-1.5c-7.258,0-13.323,3.389-14.821,7.916-6.243.141-11.252,4.131-11.252,9.044a7.144,7.144,0,0,0,.08,1.026c-5.07,1.172-8.81,5.184-8.81,9.967a9.415,9.415,0,0,0,2.29,6.081,9.758,9.758,0,0,0-2.29,6.266,10.434,10.434,0,0,0,20.854,0,9.684,9.684,0,0,0-1.17-4.608,9.783,9.783,0,0,0,4.026-7.739,9.1,9.1,0,0,0-.3-2.272,13.654,13.654,0,0,0,1.695-.479c1.982,2.944,7.421,5.063,13.836,5.063,4.951,0,9.32-1.263,11.971-3.192a29.782,29.782,0,0,0,7.292.881c.844,0,1.672-.036,2.483-.1.708,2.542,5.038,4.5,10.289,4.5a18.043,18.043,0,0,0,6.089-1,23.024,23.024,0,0,0,4.461.434,22.32,22.32,0,0,0,6.077-.824,7.192,7.192,0,0,0-.238,1.818,6.329,6.329,0,1,0,12.627,0A6.656,6.656,0,0,0,463.3,192.49Z" transform="translate(-368.47 -163.119)" fill="#daf4f2"/>
    <path id="Path_88789" data-name="Path 88789" d="M463.3,192.414a5.286,5.286,0,0,0,.729-2.619,5.028,5.028,0,0,0-.07-.823A6.905,6.905,0,0,0,465.1,187.6c2.407-3.823.633-9.27-3.964-12.163a10.34,10.34,0,0,0-9.259-1.119c-1.966-2.625-5.6-4.484-9.855-4.813a8.615,8.615,0,0,0-5.923-2.04,10.528,10.528,0,0,0-3.046.442,19.284,19.284,0,0,0-21.831-.136,21.1,21.1,0,0,0-7.952-1.5c-7.258,0-13.323,3.389-14.821,7.916-6.243.141-11.252,4.131-11.252,9.044a7.144,7.144,0,0,0,.08,1.026c-5.07,1.172-8.81,5.184-8.81,9.967a9.415,9.415,0,0,0,2.29,6.081,9.759,9.759,0,0,0-2.29,6.267,10.434,10.434,0,0,0,20.854,0,9.685,9.685,0,0,0-1.17-4.609,9.783,9.783,0,0,0,4.026-7.739,9.1,9.1,0,0,0-.3-2.272,13.657,13.657,0,0,0,1.695-.479c1.982,2.944,7.421,5.063,13.836,5.063,4.951,0,9.32-1.263,11.971-3.192a29.782,29.782,0,0,0,7.292.881c.844,0,1.672-.036,2.483-.1.708,2.542,5.038,4.5,10.289,4.5a18.042,18.042,0,0,0,6.089-1,23.024,23.024,0,0,0,4.461.434,22.319,22.319,0,0,0,6.077-.824,7.192,7.192,0,0,0-.238,1.818,6.329,6.329,0,1,0,12.627,0A6.656,6.656,0,0,0,463.3,192.414Z" transform="translate(-368.47 -163.102)" fill="#dbf5f2"/>
    <path id="Path_88790" data-name="Path 88790" d="M463.3,192.338a5.286,5.286,0,0,0,.729-2.619,5.028,5.028,0,0,0-.07-.823,6.905,6.905,0,0,0,1.141-1.369c2.407-3.823.633-9.27-3.964-12.163a10.34,10.34,0,0,0-9.259-1.119c-1.966-2.625-5.6-4.484-9.855-4.813a8.615,8.615,0,0,0-5.923-2.04,10.528,10.528,0,0,0-3.046.442,19.284,19.284,0,0,0-21.831-.136,21.1,21.1,0,0,0-7.952-1.5c-7.258,0-13.323,3.389-14.821,7.916-6.243.141-11.252,4.131-11.252,9.044a7.144,7.144,0,0,0,.08,1.026c-5.07,1.172-8.81,5.184-8.81,9.967a9.419,9.419,0,0,0,2.29,6.081,9.755,9.755,0,0,0-2.29,6.266,10.434,10.434,0,0,0,20.854,0,9.685,9.685,0,0,0-1.17-4.609,9.783,9.783,0,0,0,4.026-7.739,9.1,9.1,0,0,0-.3-2.272,13.654,13.654,0,0,0,1.695-.479c1.982,2.944,7.421,5.063,13.836,5.063,4.951,0,9.32-1.263,11.971-3.192a29.782,29.782,0,0,0,7.292.881c.844,0,1.672-.035,2.483-.1.708,2.542,5.038,4.5,10.289,4.5a18.042,18.042,0,0,0,6.089-1A23.024,23.024,0,0,0,450,198a22.319,22.319,0,0,0,6.077-.825,7.192,7.192,0,0,0-.238,1.818,6.329,6.329,0,1,0,12.627,0A6.656,6.656,0,0,0,463.3,192.338Z" transform="translate(-368.47 -163.085)" fill="#dcf5f3"/>
    <path id="Path_88791" data-name="Path 88791" d="M463.3,192.262a5.286,5.286,0,0,0,.729-2.619,5.028,5.028,0,0,0-.07-.823,6.905,6.905,0,0,0,1.141-1.369c2.407-3.823.633-9.27-3.964-12.163a10.34,10.34,0,0,0-9.259-1.119c-1.966-2.625-5.6-4.484-9.855-4.813a8.615,8.615,0,0,0-5.923-2.04,10.528,10.528,0,0,0-3.046.442,19.282,19.282,0,0,0-21.831-.136,21.08,21.08,0,0,0-7.952-1.5c-7.258,0-13.323,3.389-14.821,7.916-6.243.141-11.252,4.131-11.252,9.044a7.144,7.144,0,0,0,.08,1.026c-5.07,1.172-8.81,5.184-8.81,9.967a9.419,9.419,0,0,0,2.29,6.081,9.755,9.755,0,0,0-2.29,6.266,10.434,10.434,0,0,0,20.854,0,9.685,9.685,0,0,0-1.17-4.609,9.783,9.783,0,0,0,4.026-7.739,9.1,9.1,0,0,0-.3-2.272,13.654,13.654,0,0,0,1.695-.479c1.982,2.944,7.421,5.063,13.836,5.063,4.951,0,9.32-1.263,11.971-3.192a29.782,29.782,0,0,0,7.292.881c.844,0,1.672-.035,2.483-.1.708,2.542,5.038,4.5,10.289,4.5a18.043,18.043,0,0,0,6.089-1,23.024,23.024,0,0,0,4.461.435,22.319,22.319,0,0,0,6.077-.825,7.192,7.192,0,0,0-.238,1.818,6.329,6.329,0,1,0,12.627,0A6.656,6.656,0,0,0,463.3,192.262Z" transform="translate(-368.47 -163.068)" fill="#ddf5f3"/>
    <path id="Path_88792" data-name="Path 88792" d="M463.3,192.186a5.286,5.286,0,0,0,.729-2.619,5.028,5.028,0,0,0-.07-.823,6.883,6.883,0,0,0,1.141-1.369c2.407-3.823.633-9.27-3.964-12.163a10.342,10.342,0,0,0-9.259-1.119c-1.966-2.625-5.6-4.484-9.855-4.813a8.615,8.615,0,0,0-5.923-2.04,10.528,10.528,0,0,0-3.046.442,19.282,19.282,0,0,0-21.831-.136,21.08,21.08,0,0,0-7.952-1.5c-7.258,0-13.323,3.388-14.821,7.916-6.243.141-11.252,4.131-11.252,9.044a7.144,7.144,0,0,0,.08,1.026c-5.07,1.172-8.81,5.184-8.81,9.967a9.419,9.419,0,0,0,2.29,6.081,9.755,9.755,0,0,0-2.29,6.266,10.434,10.434,0,0,0,20.854,0,9.685,9.685,0,0,0-1.17-4.609A9.783,9.783,0,0,0,392.18,194a9.1,9.1,0,0,0-.3-2.272,13.657,13.657,0,0,0,1.695-.479c1.982,2.944,7.421,5.063,13.836,5.063,4.951,0,9.32-1.263,11.971-3.192a29.782,29.782,0,0,0,7.292.881c.844,0,1.672-.035,2.483-.1.708,2.542,5.038,4.5,10.289,4.5a18.042,18.042,0,0,0,6.089-1,23.023,23.023,0,0,0,4.461.435,22.32,22.32,0,0,0,6.077-.825,7.192,7.192,0,0,0-.238,1.818,6.329,6.329,0,1,0,12.627,0A6.656,6.656,0,0,0,463.3,192.186Z" transform="translate(-368.47 -163.05)" fill="#def6f3"/>
    <path id="Path_88793" data-name="Path 88793" d="M463.3,192.11a5.286,5.286,0,0,0,.729-2.619,5.028,5.028,0,0,0-.07-.823A6.883,6.883,0,0,0,465.1,187.3c2.407-3.823.633-9.27-3.964-12.163a10.342,10.342,0,0,0-9.259-1.119c-1.966-2.625-5.6-4.484-9.855-4.813a8.615,8.615,0,0,0-5.923-2.04,10.528,10.528,0,0,0-3.046.442,19.282,19.282,0,0,0-21.831-.136,21.08,21.08,0,0,0-7.952-1.5c-7.258,0-13.323,3.388-14.821,7.916-6.243.141-11.252,4.131-11.252,9.044a7.145,7.145,0,0,0,.08,1.026c-5.07,1.172-8.81,5.184-8.81,9.967a9.419,9.419,0,0,0,2.29,6.081,9.755,9.755,0,0,0-2.29,6.266,10.434,10.434,0,0,0,20.854,0,9.685,9.685,0,0,0-1.17-4.609,9.783,9.783,0,0,0,4.026-7.739,9.1,9.1,0,0,0-.3-2.272,13.657,13.657,0,0,0,1.695-.479c1.982,2.944,7.421,5.063,13.836,5.063,4.951,0,9.32-1.263,11.971-3.192a29.781,29.781,0,0,0,7.292.881c.844,0,1.672-.035,2.483-.1.708,2.542,5.038,4.5,10.289,4.5a18.042,18.042,0,0,0,6.089-1,23.024,23.024,0,0,0,4.461.435,22.319,22.319,0,0,0,6.077-.825,7.192,7.192,0,0,0-.238,1.818,6.329,6.329,0,1,0,12.627,0A6.656,6.656,0,0,0,463.3,192.11Z" transform="translate(-368.47 -163.033)" fill="#dff6f4"/>
    <path id="Path_88794" data-name="Path 88794" d="M463.3,192.034a5.286,5.286,0,0,0,.729-2.619,5.028,5.028,0,0,0-.07-.823,6.884,6.884,0,0,0,1.141-1.369c2.407-3.823.633-9.269-3.964-12.163a10.342,10.342,0,0,0-9.259-1.119c-1.966-2.625-5.6-4.484-9.855-4.813a8.615,8.615,0,0,0-5.923-2.04,10.529,10.529,0,0,0-3.046.442,19.282,19.282,0,0,0-21.831-.136,21.08,21.08,0,0,0-7.952-1.5c-7.258,0-13.323,3.388-14.821,7.916-6.243.141-11.252,4.131-11.252,9.044a7.145,7.145,0,0,0,.08,1.026c-5.07,1.172-8.81,5.184-8.81,9.967a9.419,9.419,0,0,0,2.29,6.081,9.755,9.755,0,0,0-2.29,6.266,10.434,10.434,0,0,0,20.854,0,9.685,9.685,0,0,0-1.17-4.609,9.783,9.783,0,0,0,4.026-7.739,9.1,9.1,0,0,0-.3-2.272,13.654,13.654,0,0,0,1.695-.479c1.982,2.944,7.421,5.063,13.836,5.063,4.951,0,9.32-1.263,11.971-3.192a29.782,29.782,0,0,0,7.292.881c.844,0,1.672-.035,2.483-.1.708,2.542,5.038,4.5,10.289,4.5a18.042,18.042,0,0,0,6.089-1,23.023,23.023,0,0,0,4.461.435,22.319,22.319,0,0,0,6.077-.825,7.192,7.192,0,0,0-.238,1.818,6.329,6.329,0,1,0,12.627,0A6.656,6.656,0,0,0,463.3,192.034Z" transform="translate(-368.47 -163.016)" fill="#e0f6f4"/>
    <path id="Path_88795" data-name="Path 88795" d="M463.3,191.958a5.286,5.286,0,0,0,.729-2.619,5.028,5.028,0,0,0-.07-.823,6.884,6.884,0,0,0,1.141-1.369c2.407-3.823.633-9.269-3.964-12.163a10.342,10.342,0,0,0-9.259-1.119c-1.966-2.625-5.6-4.484-9.855-4.813a8.615,8.615,0,0,0-5.923-2.039,10.528,10.528,0,0,0-3.046.441,19.282,19.282,0,0,0-21.831-.136,21.08,21.08,0,0,0-7.952-1.5c-7.258,0-13.323,3.388-14.821,7.916-6.243.141-11.252,4.131-11.252,9.044a7.144,7.144,0,0,0,.08,1.026c-5.07,1.172-8.81,5.184-8.81,9.967a9.419,9.419,0,0,0,2.29,6.081,9.755,9.755,0,0,0-2.29,6.266,10.434,10.434,0,0,0,20.854,0,9.685,9.685,0,0,0-1.17-4.609,9.783,9.783,0,0,0,4.026-7.739,9.1,9.1,0,0,0-.3-2.272,13.654,13.654,0,0,0,1.695-.479c1.982,2.945,7.421,5.063,13.836,5.063,4.951,0,9.32-1.263,11.971-3.192a29.782,29.782,0,0,0,7.292.881c.844,0,1.672-.035,2.483-.1.708,2.542,5.038,4.5,10.289,4.5a18.042,18.042,0,0,0,6.089-1,23.024,23.024,0,0,0,4.461.435,22.319,22.319,0,0,0,6.077-.825,7.192,7.192,0,0,0-.238,1.818,6.329,6.329,0,1,0,12.627,0A6.656,6.656,0,0,0,463.3,191.958Z" transform="translate(-368.47 -162.999)" fill="#e1f7f4"/>
    <path id="Path_88796" data-name="Path 88796" d="M463.3,191.882a5.284,5.284,0,0,0,.729-2.619,5.028,5.028,0,0,0-.07-.823,6.883,6.883,0,0,0,1.141-1.369c2.407-3.823.633-9.269-3.964-12.163a10.342,10.342,0,0,0-9.259-1.119c-1.966-2.625-5.6-4.484-9.855-4.813a8.615,8.615,0,0,0-5.923-2.039,10.528,10.528,0,0,0-3.046.441,19.282,19.282,0,0,0-21.831-.136,21.08,21.08,0,0,0-7.952-1.5c-7.258,0-13.323,3.388-14.821,7.916-6.243.141-11.252,4.131-11.252,9.044a7.144,7.144,0,0,0,.08,1.026c-5.07,1.172-8.81,5.184-8.81,9.968a9.419,9.419,0,0,0,2.29,6.081,9.757,9.757,0,0,0-2.29,6.266,10.434,10.434,0,0,0,20.854,0,9.685,9.685,0,0,0-1.17-4.609,9.783,9.783,0,0,0,4.026-7.739,9.1,9.1,0,0,0-.3-2.272,13.657,13.657,0,0,0,1.695-.479c1.982,2.945,7.421,5.063,13.836,5.063,4.951,0,9.32-1.263,11.971-3.192a29.782,29.782,0,0,0,7.292.881c.844,0,1.672-.035,2.483-.1.708,2.542,5.038,4.5,10.289,4.5a18.042,18.042,0,0,0,6.089-1,23.024,23.024,0,0,0,4.461.435,22.319,22.319,0,0,0,6.077-.825,7.192,7.192,0,0,0-.238,1.818,6.329,6.329,0,1,0,12.627,0A6.656,6.656,0,0,0,463.3,191.882Z" transform="translate(-368.47 -162.982)" fill="#e2f7f5"/>
    <path id="Path_88797" data-name="Path 88797" d="M463.3,191.806a5.284,5.284,0,0,0,.729-2.619,5.028,5.028,0,0,0-.07-.823,6.884,6.884,0,0,0,1.141-1.369c2.407-3.823.633-9.269-3.964-12.163a10.342,10.342,0,0,0-9.259-1.119c-1.966-2.625-5.6-4.484-9.855-4.813a8.619,8.619,0,0,0-5.923-2.039,10.529,10.529,0,0,0-3.046.441,19.282,19.282,0,0,0-21.831-.136,21.08,21.08,0,0,0-7.952-1.5c-7.258,0-13.323,3.388-14.821,7.916-6.243.141-11.252,4.131-11.252,9.044a7.145,7.145,0,0,0,.08,1.026c-5.07,1.172-8.81,5.184-8.81,9.967a9.419,9.419,0,0,0,2.29,6.081,9.757,9.757,0,0,0-2.29,6.266,10.434,10.434,0,0,0,20.854,0,9.685,9.685,0,0,0-1.17-4.609,9.782,9.782,0,0,0,4.026-7.739,9.1,9.1,0,0,0-.3-2.272,13.657,13.657,0,0,0,1.695-.479c1.982,2.945,7.421,5.063,13.836,5.063,4.951,0,9.32-1.263,11.971-3.192a29.782,29.782,0,0,0,7.292.881c.844,0,1.672-.035,2.483-.1.708,2.542,5.038,4.5,10.289,4.5a18.042,18.042,0,0,0,6.089-1,23.023,23.023,0,0,0,4.461.435,22.319,22.319,0,0,0,6.077-.825,7.193,7.193,0,0,0-.238,1.819,6.329,6.329,0,1,0,12.627,0A6.657,6.657,0,0,0,463.3,191.806Z" transform="translate(-368.47 -162.965)" fill="#e3f8f5"/>
    <path id="Path_88798" data-name="Path 88798" d="M463.3,191.73a5.284,5.284,0,0,0,.729-2.619,5.028,5.028,0,0,0-.07-.823,6.9,6.9,0,0,0,1.141-1.369c2.407-3.824.633-9.27-3.964-12.163a10.342,10.342,0,0,0-9.259-1.119c-1.966-2.625-5.6-4.484-9.855-4.812a8.615,8.615,0,0,0-5.923-2.04,10.529,10.529,0,0,0-3.046.441,19.282,19.282,0,0,0-21.831-.136,21.079,21.079,0,0,0-7.952-1.5c-7.258,0-13.323,3.388-14.821,7.916-6.243.141-11.252,4.131-11.252,9.044a7.145,7.145,0,0,0,.08,1.026c-5.07,1.172-8.81,5.184-8.81,9.967a9.419,9.419,0,0,0,2.29,6.081,9.757,9.757,0,0,0-2.29,6.266,10.434,10.434,0,0,0,20.854,0,9.685,9.685,0,0,0-1.17-4.609,9.781,9.781,0,0,0,4.026-7.739,9.1,9.1,0,0,0-.3-2.272,13.654,13.654,0,0,0,1.695-.479c1.982,2.945,7.421,5.064,13.836,5.064,4.951,0,9.32-1.264,11.971-3.193a29.782,29.782,0,0,0,7.292.881c.844,0,1.672-.035,2.483-.1.708,2.542,5.038,4.5,10.289,4.5a18.042,18.042,0,0,0,6.089-1,23.023,23.023,0,0,0,4.461.435,22.319,22.319,0,0,0,6.077-.825,7.194,7.194,0,0,0-.238,1.819,6.329,6.329,0,1,0,12.627,0A6.657,6.657,0,0,0,463.3,191.73Z" transform="translate(-368.47 -162.948)" fill="#e4f8f5"/>
    <path id="Path_88799" data-name="Path 88799" d="M463.3,191.654a5.284,5.284,0,0,0,.729-2.619,5.028,5.028,0,0,0-.07-.823,6.9,6.9,0,0,0,1.141-1.369c2.407-3.824.633-9.27-3.964-12.163a10.342,10.342,0,0,0-9.259-1.119c-1.966-2.625-5.6-4.484-9.855-4.812a8.615,8.615,0,0,0-5.923-2.04,10.528,10.528,0,0,0-3.046.441,19.282,19.282,0,0,0-21.831-.136,21.08,21.08,0,0,0-7.952-1.5c-7.258,0-13.323,3.388-14.821,7.916-6.243.142-11.252,4.131-11.252,9.044a7.136,7.136,0,0,0,.08,1.026c-5.07,1.173-8.81,5.184-8.81,9.967a9.419,9.419,0,0,0,2.29,6.081,9.757,9.757,0,0,0-2.29,6.266,10.434,10.434,0,0,0,20.854,0,9.685,9.685,0,0,0-1.17-4.609,9.781,9.781,0,0,0,4.026-7.739,9.1,9.1,0,0,0-.3-2.272,13.657,13.657,0,0,0,1.695-.479c1.982,2.945,7.421,5.064,13.836,5.064,4.951,0,9.32-1.264,11.971-3.193a29.782,29.782,0,0,0,7.292.881c.844,0,1.672-.035,2.483-.1.708,2.541,5.038,4.5,10.289,4.5a18.023,18.023,0,0,0,6.089-1,23.024,23.024,0,0,0,4.461.435,22.319,22.319,0,0,0,6.077-.825,7.193,7.193,0,0,0-.238,1.819,6.329,6.329,0,1,0,12.627,0A6.657,6.657,0,0,0,463.3,191.654Z" transform="translate(-368.47 -162.93)" fill="#e5f8f6"/>
    <path id="Path_88800" data-name="Path 88800" d="M463.3,191.578a5.284,5.284,0,0,0,.729-2.619,5.035,5.035,0,0,0-.07-.823,6.9,6.9,0,0,0,1.141-1.369c2.407-3.824.633-9.27-3.964-12.163a10.342,10.342,0,0,0-9.259-1.119c-1.966-2.625-5.6-4.484-9.855-4.812a8.615,8.615,0,0,0-5.923-2.04,10.528,10.528,0,0,0-3.046.441,19.282,19.282,0,0,0-21.831-.136,21.08,21.08,0,0,0-7.952-1.5c-7.258,0-13.323,3.388-14.821,7.916-6.243.142-11.252,4.131-11.252,9.044a7.136,7.136,0,0,0,.08,1.026c-5.07,1.173-8.81,5.184-8.81,9.968a9.419,9.419,0,0,0,2.29,6.081,9.757,9.757,0,0,0-2.29,6.266,10.434,10.434,0,0,0,20.854,0,9.685,9.685,0,0,0-1.17-4.609,9.782,9.782,0,0,0,4.026-7.739,9.1,9.1,0,0,0-.3-2.272,13.657,13.657,0,0,0,1.695-.479c1.982,2.945,7.421,5.064,13.836,5.064,4.951,0,9.32-1.264,11.971-3.193a29.783,29.783,0,0,0,7.292.881c.844,0,1.672-.035,2.483-.1.708,2.541,5.038,4.5,10.289,4.5a18.023,18.023,0,0,0,6.089-1,23.023,23.023,0,0,0,4.461.435,22.319,22.319,0,0,0,6.077-.825,7.193,7.193,0,0,0-.238,1.819,6.329,6.329,0,1,0,12.627,0A6.657,6.657,0,0,0,463.3,191.578Z" transform="translate(-368.47 -162.913)" fill="#e6f9f6"/>
    <path id="Path_88801" data-name="Path 88801" d="M463.3,191.5a5.284,5.284,0,0,0,.729-2.619,5.035,5.035,0,0,0-.07-.823,6.9,6.9,0,0,0,1.141-1.369c2.407-3.824.633-9.27-3.964-12.163a10.342,10.342,0,0,0-9.259-1.119c-1.966-2.625-5.6-4.484-9.855-4.812a8.615,8.615,0,0,0-5.923-2.04,10.529,10.529,0,0,0-3.046.441,19.282,19.282,0,0,0-21.831-.136,21.08,21.08,0,0,0-7.952-1.5c-7.258,0-13.323,3.389-14.821,7.916-6.243.142-11.252,4.131-11.252,9.044a7.155,7.155,0,0,0,.08,1.026c-5.07,1.172-8.81,5.184-8.81,9.967a9.419,9.419,0,0,0,2.29,6.081,9.757,9.757,0,0,0-2.29,6.266,10.434,10.434,0,0,0,20.854,0,9.685,9.685,0,0,0-1.17-4.609,9.781,9.781,0,0,0,4.026-7.739,9.1,9.1,0,0,0-.3-2.272,13.654,13.654,0,0,0,1.695-.479c1.982,2.945,7.421,5.064,13.836,5.064,4.951,0,9.32-1.264,11.971-3.193a29.782,29.782,0,0,0,7.292.881c.844,0,1.672-.035,2.483-.1.708,2.541,5.038,4.5,10.289,4.5a18.023,18.023,0,0,0,6.089-1,23.023,23.023,0,0,0,4.461.435,22.319,22.319,0,0,0,6.077-.825,7.194,7.194,0,0,0-.238,1.819,6.329,6.329,0,1,0,12.627,0A6.657,6.657,0,0,0,463.3,191.5Z" transform="translate(-368.47 -162.896)" fill="#e7f9f6"/>
    <path id="Path_88802" data-name="Path 88802" d="M463.3,191.426a5.284,5.284,0,0,0,.729-2.619,5.036,5.036,0,0,0-.07-.823,6.9,6.9,0,0,0,1.141-1.369c2.407-3.824.633-9.27-3.964-12.163a10.342,10.342,0,0,0-9.259-1.119c-1.966-2.625-5.6-4.484-9.855-4.812a8.615,8.615,0,0,0-5.923-2.04,10.53,10.53,0,0,0-3.046.441,19.282,19.282,0,0,0-21.831-.136,21.079,21.079,0,0,0-7.952-1.5c-7.258,0-13.323,3.389-14.821,7.916-6.243.142-11.252,4.131-11.252,9.044a7.156,7.156,0,0,0,.08,1.026c-5.07,1.172-8.81,5.184-8.81,9.967a9.419,9.419,0,0,0,2.29,6.081,9.757,9.757,0,0,0-2.29,6.266,10.434,10.434,0,0,0,20.854,0,9.685,9.685,0,0,0-1.17-4.609,9.781,9.781,0,0,0,4.026-7.739,9.088,9.088,0,0,0-.3-2.271,13.8,13.8,0,0,0,1.695-.48c1.982,2.945,7.421,5.064,13.836,5.064,4.951,0,9.32-1.264,11.971-3.193a29.782,29.782,0,0,0,7.292.881c.844,0,1.672-.035,2.483-.1.708,2.541,5.038,4.5,10.289,4.5a18.023,18.023,0,0,0,6.089-1,22.961,22.961,0,0,0,4.461.435,22.319,22.319,0,0,0,6.077-.825,7.193,7.193,0,0,0-.238,1.819,6.329,6.329,0,1,0,12.627,0A6.657,6.657,0,0,0,463.3,191.426Z" transform="translate(-368.47 -162.879)" fill="#e8f9f7"/>
    <path id="Path_88803" data-name="Path 88803" d="M463.3,191.35a5.284,5.284,0,0,0,.729-2.619,5.035,5.035,0,0,0-.07-.823,6.9,6.9,0,0,0,1.141-1.369c2.407-3.824.633-9.27-3.964-12.163a10.342,10.342,0,0,0-9.259-1.119c-1.966-2.625-5.6-4.484-9.855-4.812a8.615,8.615,0,0,0-5.923-2.04,10.528,10.528,0,0,0-3.046.441,19.282,19.282,0,0,0-21.831-.136,21.08,21.08,0,0,0-7.952-1.5c-7.258,0-13.323,3.389-14.821,7.916-6.243.142-11.252,4.131-11.252,9.044a7.155,7.155,0,0,0,.08,1.026c-5.07,1.172-8.81,5.184-8.81,9.967a9.419,9.419,0,0,0,2.29,6.081,9.756,9.756,0,0,0-2.29,6.266,10.434,10.434,0,0,0,20.854,0,9.685,9.685,0,0,0-1.17-4.609,9.781,9.781,0,0,0,4.026-7.739,9.088,9.088,0,0,0-.3-2.271,13.926,13.926,0,0,0,1.695-.479c1.982,2.944,7.421,5.063,13.836,5.063,4.951,0,9.32-1.263,11.971-3.192a29.821,29.821,0,0,0,7.292.88c.844,0,1.672-.035,2.483-.1.708,2.541,5.038,4.5,10.289,4.5a18.023,18.023,0,0,0,6.089-1,22.963,22.963,0,0,0,4.461.435,22.319,22.319,0,0,0,6.077-.825,7.193,7.193,0,0,0-.238,1.819,6.329,6.329,0,1,0,12.627,0A6.657,6.657,0,0,0,463.3,191.35Z" transform="translate(-368.47 -162.862)" fill="#e9faf7"/>
    <path id="Path_88804" data-name="Path 88804" d="M463.3,191.274a5.284,5.284,0,0,0,.729-2.619,5.035,5.035,0,0,0-.07-.823,6.9,6.9,0,0,0,1.141-1.369c2.407-3.824.633-9.27-3.964-12.163a10.342,10.342,0,0,0-9.259-1.119c-1.966-2.625-5.6-4.483-9.855-4.812a8.615,8.615,0,0,0-5.923-2.04,10.528,10.528,0,0,0-3.046.441,19.282,19.282,0,0,0-21.831-.136,21.08,21.08,0,0,0-7.952-1.5c-7.258,0-13.323,3.389-14.821,7.916-6.243.142-11.252,4.132-11.252,9.044a7.155,7.155,0,0,0,.08,1.026c-5.07,1.172-8.81,5.184-8.81,9.967a9.419,9.419,0,0,0,2.29,6.081,9.757,9.757,0,0,0-2.29,6.266,10.434,10.434,0,0,0,20.854,0,9.685,9.685,0,0,0-1.17-4.609,9.781,9.781,0,0,0,4.026-7.739,9.088,9.088,0,0,0-.3-2.271,13.926,13.926,0,0,0,1.695-.479c1.982,2.944,7.421,5.063,13.836,5.063,4.951,0,9.32-1.263,11.971-3.192a29.82,29.82,0,0,0,7.292.88c.844,0,1.672-.035,2.483-.1.708,2.541,5.038,4.5,10.289,4.5a18.023,18.023,0,0,0,6.089-1,22.963,22.963,0,0,0,4.461.435,22.319,22.319,0,0,0,6.077-.825,7.193,7.193,0,0,0-.238,1.819,6.329,6.329,0,1,0,12.627,0A6.657,6.657,0,0,0,463.3,191.274Z" transform="translate(-368.47 -162.845)" fill="#eafaf7"/>
    <path id="Path_88805" data-name="Path 88805" d="M463.3,191.2a5.281,5.281,0,0,0,.729-2.619,5.036,5.036,0,0,0-.07-.823,6.9,6.9,0,0,0,1.141-1.369c2.407-3.824.633-9.27-3.964-12.163a10.342,10.342,0,0,0-9.259-1.119c-1.966-2.625-5.6-4.483-9.855-4.812a8.615,8.615,0,0,0-5.923-2.04,10.53,10.53,0,0,0-3.046.441,19.282,19.282,0,0,0-21.831-.136,21.08,21.08,0,0,0-7.952-1.5c-7.258,0-13.323,3.389-14.821,7.916-6.243.141-11.252,4.131-11.252,9.043a7.156,7.156,0,0,0,.08,1.026c-5.07,1.172-8.81,5.184-8.81,9.967a9.419,9.419,0,0,0,2.29,6.081,9.757,9.757,0,0,0-2.29,6.266,10.434,10.434,0,0,0,20.854,0,9.685,9.685,0,0,0-1.17-4.609,9.781,9.781,0,0,0,4.026-7.739,9.088,9.088,0,0,0-.3-2.271,13.926,13.926,0,0,0,1.695-.479c1.982,2.944,7.421,5.063,13.836,5.063,4.951,0,9.32-1.263,11.971-3.193a29.782,29.782,0,0,0,7.292.881c.844,0,1.672-.035,2.483-.1.708,2.541,5.038,4.5,10.289,4.5a18.023,18.023,0,0,0,6.089-1,22.961,22.961,0,0,0,4.461.435,22.319,22.319,0,0,0,6.077-.825,7.193,7.193,0,0,0-.238,1.819,6.329,6.329,0,1,0,12.627,0A6.657,6.657,0,0,0,463.3,191.2Z" transform="translate(-368.47 -162.828)" fill="#ebfaf8"/>
    <path id="Path_88806" data-name="Path 88806" d="M463.3,191.122a5.283,5.283,0,0,0,.729-2.618,5.038,5.038,0,0,0-.07-.824,6.9,6.9,0,0,0,1.141-1.369c2.407-3.824.633-9.27-3.964-12.163a10.342,10.342,0,0,0-9.259-1.119c-1.966-2.625-5.6-4.484-9.855-4.812a8.615,8.615,0,0,0-5.923-2.04,10.528,10.528,0,0,0-3.046.441,19.282,19.282,0,0,0-21.831-.136,21.08,21.08,0,0,0-7.952-1.5c-7.258,0-13.323,3.389-14.821,7.916-6.243.141-11.252,4.131-11.252,9.043a7.155,7.155,0,0,0,.08,1.026c-5.07,1.172-8.81,5.184-8.81,9.967a9.419,9.419,0,0,0,2.29,6.081,9.757,9.757,0,0,0-2.29,6.266,10.434,10.434,0,0,0,20.854,0,9.685,9.685,0,0,0-1.17-4.609,9.781,9.781,0,0,0,4.026-7.739,9.088,9.088,0,0,0-.3-2.271,13.928,13.928,0,0,0,1.695-.479c1.982,2.944,7.421,5.063,13.836,5.063,4.951,0,9.32-1.263,11.971-3.192a29.82,29.82,0,0,0,7.292.88c.844,0,1.672-.035,2.483-.1.708,2.541,5.038,4.5,10.289,4.5a18.023,18.023,0,0,0,6.089-1,22.963,22.963,0,0,0,4.461.435,22.319,22.319,0,0,0,6.077-.825,7.193,7.193,0,0,0-.238,1.819,6.329,6.329,0,1,0,12.627,0A6.657,6.657,0,0,0,463.3,191.122Z" transform="translate(-368.47 -162.811)" fill="#ecfbf8"/>
    <path id="Path_88807" data-name="Path 88807" d="M463.3,191.047a5.286,5.286,0,0,0,.729-2.619,5.021,5.021,0,0,0-.07-.823,6.927,6.927,0,0,0,1.141-1.369c2.407-3.824.633-9.27-3.964-12.163a10.342,10.342,0,0,0-9.259-1.119c-1.966-2.625-5.6-4.483-9.855-4.812a8.615,8.615,0,0,0-5.923-2.04,10.528,10.528,0,0,0-3.046.441,19.282,19.282,0,0,0-21.831-.136,21.08,21.08,0,0,0-7.952-1.5c-7.258,0-13.323,3.389-14.821,7.916-6.243.141-11.252,4.131-11.252,9.043a7.155,7.155,0,0,0,.08,1.026c-5.07,1.172-8.81,5.184-8.81,9.967a9.419,9.419,0,0,0,2.29,6.081,9.757,9.757,0,0,0-2.29,6.266,10.434,10.434,0,0,0,20.854,0,9.685,9.685,0,0,0-1.17-4.609,9.781,9.781,0,0,0,4.026-7.739,9.093,9.093,0,0,0-.3-2.271,13.787,13.787,0,0,0,1.695-.479c1.982,2.944,7.421,5.063,13.836,5.063,4.951,0,9.32-1.263,11.971-3.192a29.783,29.783,0,0,0,7.292.88c.844,0,1.672-.035,2.483-.1.708,2.541,5.038,4.5,10.289,4.5a18.023,18.023,0,0,0,6.089-1A22.963,22.963,0,0,0,450,196.7a22.289,22.289,0,0,0,6.077-.825,7.193,7.193,0,0,0-.238,1.819,6.329,6.329,0,1,0,12.627,0A6.655,6.655,0,0,0,463.3,191.047Z" transform="translate(-368.47 -162.793)" fill="#edfbf8"/>
    <path id="Path_88808" data-name="Path 88808" d="M463.3,190.971a5.286,5.286,0,0,0,.729-2.619,5.021,5.021,0,0,0-.07-.823,6.929,6.929,0,0,0,1.141-1.369c2.407-3.824.633-9.27-3.964-12.163a10.342,10.342,0,0,0-9.259-1.119c-1.966-2.625-5.6-4.483-9.855-4.812a8.615,8.615,0,0,0-5.923-2.039,10.528,10.528,0,0,0-3.046.441,19.282,19.282,0,0,0-21.831-.136,21.1,21.1,0,0,0-7.952-1.5c-7.258,0-13.323,3.389-14.821,7.916-6.243.141-11.252,4.131-11.252,9.044a7.154,7.154,0,0,0,.08,1.026c-5.07,1.172-8.81,5.184-8.81,9.967a9.417,9.417,0,0,0,2.29,6.081,9.758,9.758,0,0,0-2.29,6.266,10.434,10.434,0,0,0,20.854,0,9.685,9.685,0,0,0-1.17-4.609,9.781,9.781,0,0,0,4.026-7.739,9.093,9.093,0,0,0-.3-2.271,13.79,13.79,0,0,0,1.695-.479c1.982,2.944,7.421,5.063,13.836,5.063,4.951,0,9.32-1.263,11.971-3.192a29.82,29.82,0,0,0,7.292.88c.844,0,1.672-.035,2.483-.1.708,2.541,5.038,4.5,10.289,4.5a18.043,18.043,0,0,0,6.089-1,23.026,23.026,0,0,0,4.461.434,22.289,22.289,0,0,0,6.077-.825,7.193,7.193,0,0,0-.238,1.819,6.329,6.329,0,1,0,12.627,0A6.655,6.655,0,0,0,463.3,190.971Z" transform="translate(-368.47 -162.776)" fill="#eefcf9"/>
    <path id="Path_88809" data-name="Path 88809" d="M463.3,190.895a5.286,5.286,0,0,0,.729-2.619,5.021,5.021,0,0,0-.07-.823,6.928,6.928,0,0,0,1.141-1.369c2.407-3.824.633-9.27-3.964-12.163a10.342,10.342,0,0,0-9.259-1.119c-1.966-2.625-5.6-4.483-9.855-4.812a8.615,8.615,0,0,0-5.923-2.04,10.528,10.528,0,0,0-3.046.441,19.282,19.282,0,0,0-21.831-.136,21.1,21.1,0,0,0-7.952-1.5c-7.258,0-13.323,3.389-14.821,7.916-6.243.141-11.252,4.131-11.252,9.044a7.153,7.153,0,0,0,.08,1.026c-5.07,1.172-8.81,5.184-8.81,9.967a9.417,9.417,0,0,0,2.29,6.081,9.758,9.758,0,0,0-2.29,6.266,10.434,10.434,0,0,0,20.854,0,9.685,9.685,0,0,0-1.17-4.609,9.781,9.781,0,0,0,4.026-7.739,9.1,9.1,0,0,0-.3-2.271,13.793,13.793,0,0,0,1.695-.479c1.982,2.944,7.421,5.063,13.836,5.063,4.951,0,9.32-1.263,11.971-3.192a29.783,29.783,0,0,0,7.292.88c.844,0,1.672-.035,2.483-.1.708,2.541,5.038,4.5,10.289,4.5a18.043,18.043,0,0,0,6.089-1,23.025,23.025,0,0,0,4.461.434,22.289,22.289,0,0,0,6.077-.825,7.193,7.193,0,0,0-.238,1.819,6.329,6.329,0,1,0,12.627,0A6.655,6.655,0,0,0,463.3,190.895Z" transform="translate(-368.47 -162.759)" fill="#effcf9"/>
    <path id="Path_88810" data-name="Path 88810" d="M463.3,190.819a5.286,5.286,0,0,0,.729-2.619,5.021,5.021,0,0,0-.07-.823,6.927,6.927,0,0,0,1.141-1.369c2.407-3.824.633-9.27-3.964-12.163a10.342,10.342,0,0,0-9.259-1.119c-1.966-2.625-5.6-4.483-9.855-4.812a8.615,8.615,0,0,0-5.923-2.04,10.528,10.528,0,0,0-3.046.441,19.285,19.285,0,0,0-21.831-.136,21.1,21.1,0,0,0-7.952-1.5c-7.258,0-13.323,3.389-14.821,7.916-6.243.141-11.252,4.131-11.252,9.044a7.145,7.145,0,0,0,.08,1.026c-5.07,1.172-8.81,5.184-8.81,9.967a9.415,9.415,0,0,0,2.29,6.081,9.758,9.758,0,0,0-2.29,6.266,10.434,10.434,0,0,0,20.854,0,9.685,9.685,0,0,0-1.17-4.609,9.781,9.781,0,0,0,4.026-7.739,9.093,9.093,0,0,0-.3-2.271,13.793,13.793,0,0,0,1.695-.479c1.982,2.944,7.421,5.063,13.836,5.063,4.951,0,9.32-1.263,11.971-3.192a29.783,29.783,0,0,0,7.292.88c.844,0,1.672-.035,2.483-.1.708,2.541,5.038,4.5,10.289,4.5a18.042,18.042,0,0,0,6.089-1,23.024,23.024,0,0,0,4.461.434,22.289,22.289,0,0,0,6.077-.825,7.194,7.194,0,0,0-.238,1.819,6.329,6.329,0,1,0,12.627,0A6.656,6.656,0,0,0,463.3,190.819Z" transform="translate(-368.47 -162.742)" fill="#f0fcf9"/>
    <path id="Path_88811" data-name="Path 88811" d="M463.3,190.743a5.286,5.286,0,0,0,.729-2.619,5.021,5.021,0,0,0-.07-.823,6.907,6.907,0,0,0,1.141-1.369c2.407-3.824.633-9.27-3.964-12.163a10.342,10.342,0,0,0-9.259-1.119c-1.966-2.624-5.6-4.483-9.855-4.812A8.615,8.615,0,0,0,436.1,165.8a10.528,10.528,0,0,0-3.046.441,19.282,19.282,0,0,0-21.831-.136,21.1,21.1,0,0,0-7.952-1.5c-7.258,0-13.323,3.389-14.821,7.916-6.243.141-11.252,4.131-11.252,9.044a7.145,7.145,0,0,0,.08,1.026c-5.07,1.172-8.81,5.184-8.81,9.967a9.415,9.415,0,0,0,2.29,6.081,9.758,9.758,0,0,0-2.29,6.266,10.434,10.434,0,0,0,20.854,0,9.685,9.685,0,0,0-1.17-4.609,9.781,9.781,0,0,0,4.026-7.738,9.1,9.1,0,0,0-.3-2.272,13.79,13.79,0,0,0,1.695-.479c1.982,2.944,7.421,5.063,13.836,5.063,4.951,0,9.32-1.263,11.971-3.192a29.782,29.782,0,0,0,7.292.881c.844,0,1.672-.036,2.483-.1.708,2.541,5.038,4.5,10.289,4.5a18.042,18.042,0,0,0,6.089-1A23.024,23.024,0,0,0,450,196.4a22.289,22.289,0,0,0,6.077-.825,7.193,7.193,0,0,0-.238,1.819,6.329,6.329,0,1,0,12.627,0A6.656,6.656,0,0,0,463.3,190.743Z" transform="translate(-368.47 -162.725)" fill="#f1fdfa"/>
    <path id="Path_88812" data-name="Path 88812" d="M463.3,190.667a5.286,5.286,0,0,0,.729-2.619,5.021,5.021,0,0,0-.07-.823,6.905,6.905,0,0,0,1.141-1.369c2.407-3.824.633-9.27-3.964-12.163a10.344,10.344,0,0,0-9.259-1.119c-1.966-2.624-5.6-4.483-9.855-4.812a8.615,8.615,0,0,0-5.923-2.039,10.528,10.528,0,0,0-3.046.441,19.285,19.285,0,0,0-21.831-.136,21.1,21.1,0,0,0-7.952-1.5c-7.258,0-13.323,3.389-14.821,7.916-6.243.141-11.252,4.131-11.252,9.044a7.144,7.144,0,0,0,.08,1.026c-5.07,1.172-8.81,5.184-8.81,9.967a9.415,9.415,0,0,0,2.29,6.081,9.758,9.758,0,0,0-2.29,6.266,10.434,10.434,0,0,0,20.854,0,9.68,9.68,0,0,0-1.17-4.608,9.784,9.784,0,0,0,4.026-7.74,9.1,9.1,0,0,0-.3-2.271,13.79,13.79,0,0,0,1.695-.479c1.982,2.944,7.421,5.063,13.836,5.063,4.951,0,9.32-1.263,11.971-3.192a29.783,29.783,0,0,0,7.292.88c.844,0,1.672-.035,2.483-.1.708,2.541,5.038,4.5,10.289,4.5a18.043,18.043,0,0,0,6.089-1,23.026,23.026,0,0,0,4.461.434,22.289,22.289,0,0,0,6.077-.825,7.193,7.193,0,0,0-.238,1.819,6.329,6.329,0,1,0,12.627,0A6.656,6.656,0,0,0,463.3,190.667Z" transform="translate(-368.47 -162.708)" fill="#f2fdfa"/>
  </g>
</svg>
