<svg id="grass" xmlns="http://www.w3.org/2000/svg" width="107.462" height="80.518" viewBox="0 0 107.462 80.518">
  <path id="Path_86763" data-name="Path 86763" d="M236.467,897.3c.3,1.484,4.75,11.131,12.171,11.948s9.8-1.855,16.326-1.558,14,1.187,18.281.3,5.82-5.41,10.838-4.635,11.423-1.9,15.345-3.083,5.6-17.711,5.6-17.711-20.888-3.288-32.358-4.663-49.762-5.827-54.215-5.827-18.814,9.411-18.319,10.223,3.094,12.337,7.59,14.712,12.214,4.156,14.291,3.266A21.05,21.05,0,0,0,236.467,897.3Z" transform="translate(-207.673 -828.884)" opacity="0.1"/>
  <path id="Path_86764" data-name="Path 86764" d="M306.912,867.948a10.378,10.378,0,0,0,1.272-4.908,10.432,10.432,0,0,0-14.253-9.766,7.7,7.7,0,0,0,1.7-4.739c0-4.854-4.753-8.789-10.614-8.789a12.744,12.744,0,0,0-2.32.225c-2.454-6.45-9.14-11.087-17.024-11.087-8.361,0-15.374,5.214-17.418,12.279A20.448,20.448,0,0,0,234.56,847a5.116,5.116,0,0,0-3.61-1.607c-3.214,0-5.819,3.251-5.819,7.262a8.866,8.866,0,0,0,.241,1.959c-10.117,1.9-17.7,9.638-17.7,18.913,0,10.695,10.074,19.365,22.5,19.365a25.58,25.58,0,0,0,8.764-1.524,17.256,17.256,0,0,0,24.7,5.978,20.31,20.31,0,0,0,10.765,2.918c6.451,0,12.009-2.684,14.649-6.568a18.6,18.6,0,0,0,9.016,2.3c9.428,0,17.07-6.774,17.07-15.13C315.135,875.388,311.836,870.6,306.912,867.948Z" transform="translate(-207.673 -828.884)" fill="#618940"/>
  <path id="Path_86765" data-name="Path 86765" d="M296.416,885.621a18.644,18.644,0,0,1-8.928-2.262,20.87,20.87,0,0,1-15.1,6.142,22,22,0,0,1-8.947-1.879,18.316,18.316,0,0,1-8.147,1.879c-8.2,0-14.952-5.163-15.883-11.813A28.273,28.273,0,0,1,223,882.809a28.563,28.563,0,0,1-14.4-3.823c2.74,8.036,11.357,13.909,21.58,13.909a25.58,25.58,0,0,0,8.764-1.524,17.256,17.256,0,0,0,24.7,5.978,20.31,20.31,0,0,0,10.765,2.918c6.451,0,12.009-2.684,14.649-6.568a18.6,18.6,0,0,0,9.016,2.3c9.428,0,17.07-6.774,17.07-15.13a13.568,13.568,0,0,0-1.622-6.367A18.711,18.711,0,0,1,296.416,885.621Z" transform="translate(-207.673 -828.884)" fill="#506719"/>
  <path id="Path_86766" data-name="Path 86766" d="M306.794,863.7c0-4.981-5.08-9.02-11.347-9.02a14.023,14.023,0,0,0-2.743.3,7.689,7.689,0,0,0-.592-2.716,5.738,5.738,0,0,0,1.686-3.884c0-4.124-5.048-7.468-11.275-7.468-.433,0-.844.053-1.265.085a10.915,10.915,0,0,0-3.463-3.811c-.494-4.046-5.29-7.233-11.2-7.233-5.233,0-9.593,2.5-10.878,5.879-4.395.829-7.666,3.775-7.849,7.345a16.94,16.94,0,0,0-2.659-.228c-4.692,0-8.652,1.856-10.171,4.442a7.153,7.153,0,0,0-2.971-.66c-3.669,0-6.643,2.684-6.643,5.993a5.49,5.49,0,0,0,.842,2.866c-4.734.923-8.2,3.609-8.447,6.857a5.692,5.692,0,0,0-2.111,4.164c0,4.359,6.235,7.893,13.926,7.893a20.087,20.087,0,0,0,10.078-2.456c2.067,4.371,7.13,7.465,13.062,7.465a15.4,15.4,0,0,0,10.063-3.576,13.663,13.663,0,0,0,16.772.041,16.763,16.763,0,0,0,10.8,3.535c7.553,0,13.675-4.081,13.675-9.117a6.135,6.135,0,0,0-.063-.838A7.991,7.991,0,0,0,306.794,863.7Z" transform="translate(-207.673 -828.884)" fill="#98ba2d"/>
  <g id="Group_19018" data-name="Group 19018">
    <path id="Path_86767" data-name="Path 86767" d="M288.016,859.164a8.58,8.58,0,0,1,1.839-2.561,11.946,11.946,0,0,1-3.378,1.532C287.007,858.463,287.513,858.811,288.016,859.164Z" transform="translate(-207.673 -828.884)" fill="#c4e04c"/>
    <path id="Path_86768" data-name="Path 86768" d="M244.164,858.782a7.07,7.07,0,0,1-1.221,1.323c.124.1.249.2.371.3.587-.476,1.2-.927,1.837-1.366C244.82,858.956,244.48,858.89,244.164,858.782Z" transform="translate(-207.673 -828.884)" fill="#c4e04c"/>
    <path id="Path_86769" data-name="Path 86769" d="M227.816,855.391c.1-3.67,3.958-6.625,8.728-6.625.321,0,.624.047.936.073,1.044-4.1,5.688-7.2,11.267-7.2.475,0,.926.065,1.386.108.764-6.265,7.438-11.165,15.563-11.165,7.38,0,13.55,4.047,15.194,9.484a13.792,13.792,0,0,1,1.777-.15c-2.472-6.42-9.136-11.031-17-11.031-8.361,0-15.374,5.214-17.418,12.279A20.448,20.448,0,0,0,234.56,847a5.116,5.116,0,0,0-3.61-1.607c-3.214,0-5.819,3.251-5.819,7.262a8.866,8.866,0,0,0,.241,1.959c-10.117,1.9-17.7,9.638-17.7,18.913,0,.53.044,1.049.092,1.568A21.673,21.673,0,0,1,227.816,855.391Z" transform="translate(-207.673 -828.884)" fill="#c4e04c"/>
    <path id="Path_86770" data-name="Path 86770" d="M294.137,849.275a8.5,8.5,0,0,1-2.761,6.108,11.807,11.807,0,0,1,6.471-1.9,11.224,11.224,0,0,1,8.508,3.643,10.387,10.387,0,0,0-12.424-3.854,7.7,7.7,0,0,0,1.7-4.739c0-4.854-4.753-8.789-10.614-8.789a12.06,12.06,0,0,0-1.77.172C289.285,840.059,294.137,844.182,294.137,849.275Z" transform="translate(-207.673 -828.884)" fill="#c4e04c"/>
  </g>
</svg>
