<svg id="stone" xmlns="http://www.w3.org/2000/svg" width="127.365" height="46.461" viewBox="0 0 127.365 46.461">
  <path id="Path_86735" data-name="Path 86735" d="M223.534,717.881a3.37,3.37,0,0,0,1.434,4.828c3.262,1.818,6.817,2.491,12.048,4.359s11.615,3.234,17.063,2.785,16.743-.555,18.724-1.826,7.741-4.851,11.166-5.63a93.23,93.23,0,0,1,16.53-1.2c3.681.19,10.245.509,13.515,0s16.19-1.91,16.19-1.91l1.4-1.811-.011-2.8s-3.264-2.122-13.533-2.535-21.95-1.555-33.625-2.223a266.058,266.058,0,0,0-33,.374C244.9,710.906,223.534,717.881,223.534,717.881Z" transform="translate(-205.898 -683.479)" opacity="0.1"/>
  <g id="Group_19016" data-name="Group 19016">
    <path id="Path_86736" data-name="Path 86736" d="M223.534,717.626a111.146,111.146,0,0,1,5.1-12.641c2.039-4.282,4.689-8.257,5.606-8.257s3.161-2.243,4.69-3.568,3.466-3.161,9.684-4.486,17.433-4.995,20.9-4.485,13.966,1.631,15.5,2.854,9.175,13.253,10.194,14.374,9.073,5.1,19.064,7.136,15.9,4.893,17.33,6.117,4.078.2-8.156,2.038-28.543.612-31.194.918-12.641-1.7-16.311.12-9.582,2.021-10.194,2.021-15.292,1.427-15.292,1.427-7.747-2.651-9.582-2.854-10.194-1.428-10.194-1.428Z" transform="translate(-205.898 -683.479)" fill="#8c8483"/>
    <path id="Path_86737" data-name="Path 86737" d="M226.185,714.67c-.714-.51-8.563,0-8.971,0s6.83-1.734,6.32-2.447.408,0-4.179-3.568S205.9,700.8,205.9,700.8l13.865,5.607-6.525-10.7s7.544,6.728,8.971,9.481,2.243-8.156,2.753-9.481.462,9.4,1.223,11.214,2.141-4.792,2.447-5.1,1.223,6.626,1.733,8.155S226.185,714.67,226.185,714.67Z" transform="translate(-205.898 -683.479)" fill="#618940"/>
    <path id="Path_86738" data-name="Path 86738" d="M294.826,700.937a60.711,60.711,0,0,0-4.723,5.985c-1.223,2.039-2.141,6.014-1.529,6.116s5.1.918,8.665,0,11.112-2.854,11.826-3.364,3.05-1.569,1.68-1.935-5.248-2.856-7.9-3.875S294.826,700.937,294.826,700.937Z" transform="translate(-205.898 -683.479)" fill="#c3beb9"/>
    <path id="Path_86739" data-name="Path 86739" d="M285.669,686.737c-1.377.306-3.441,1.5-6.729,2.585s-7.645,1.544-8.563,1.85-.306.917,1.988,1.988,9.328,3.975,11.545,5.963,4.55,5.513,5.811,6.009,5.1-4.2,5.1-4.2Z" transform="translate(-205.898 -683.479)" fill="#9b8f91"/>
    <path id="Path_86740" data-name="Path 86740" d="M268.925,691.554a34.78,34.78,0,0,0-4.588,1.529c-1.605.765-6.728,3.67-7.34,5.429s-.382,4.981-.764,6.657a21.72,21.72,0,0,0,0,6.34c.229.765,1.758,6.652,1.988,7.111s2.6,1.1,4.241,1.428,7.743-.58,9.381-.982,3.829-1.27,4.422-1.466a46.185,46.185,0,0,0,4.893-2.93c1.911-1.249,7.54-.3,7.416-1.632s1.147-4.281,1.606-5.2.217-1.573-1.528-3.519-3.686-4.663-5.463-5.762-7.536-4.175-8.607-4.863A45.027,45.027,0,0,0,268.925,691.554Z" transform="translate(-205.898 -683.479)" fill="#a79b9c"/>
    <path id="Path_86741" data-name="Path 86741" d="M239.183,691.554A28.108,28.108,0,0,0,244,692.777c1.987.23,3.593.994,6.422.994s8.182,1.167,9.557,1.071,1.864-.569,3.564-1.355a22.762,22.762,0,0,1,6.232-1.657c2.437-.352,5.794-.877,7.1-1.576a61.042,61.042,0,0,1,6.958-2.37,4.452,4.452,0,0,0,1.835-1.147,26.44,26.44,0,0,0-5.735-1.606c-3.517-.611-9.175-1.6-10.474-1.6a12.09,12.09,0,0,0-5.123.614c-3.211.915-7.11,2.368-9.4,2.6s-6.27,1.529-7.875,1.835a44.352,44.352,0,0,0-6.8,2.6A3.617,3.617,0,0,1,239.183,691.554Z" transform="translate(-205.898 -683.479)" fill="#cbc3bf"/>
    <path id="Path_86742" data-name="Path 86742" d="M228.861,700.937a59.476,59.476,0,0,0,4.358-4.49c1.147-1.3,4.477-4.789,5.429-4.893a19.2,19.2,0,0,1,4.893.612,41.279,41.279,0,0,0,6.881,1.6c2.234.153,7.563.977,8.56,1.024s1.762,1.041.462,1.958-2.454,1.611-2.575,2.2,1.88.661-.869,1.983-7.337,3.385-10.624,3.385-5.352.077-7.875,0S228.861,700.937,228.861,700.937Z" transform="translate(-205.898 -683.479)" fill="#c3bdb5"/>
    <path id="Path_86743" data-name="Path 86743" d="M250.447,721.194s-1.1-2.115-2.625-5.633-2.293-7.159-1.758-8.358.692-2.331,2.41-3.332a49.143,49.143,0,0,1,5.465-2.378c1.606-.688,3.472-1.512,3.472-1.512s-1.484,3.206-1.178,5.188.827,3.588,1.178,6.034,1.651,5.123,1.651,5.735,1.673,2.707,1.673,2.707-1.9,1.676-3.432,1.549S250.447,721.194,250.447,721.194Z" transform="translate(-205.898 -683.479)" fill="#b4a5a9"/>
    <path id="Path_86744" data-name="Path 86744" d="M223.534,717.881a25.111,25.111,0,0,1,.51-4.411,45.071,45.071,0,0,1,2.447-7.262c.561-1.376,2.37-5.271,2.37-5.271a35.948,35.948,0,0,0,3.8,1.73c1.53.534,1.87,1.494,4.248,1.59s4.826.133,6.4.1,4.46,0,4.46,0a15.111,15.111,0,0,0-1.3,3.127c-.255,1.223,1.631,7.7,2.14,8.869s1.886,5.1,1.886,5.1a49.434,49.434,0,0,1-9.124,0c-3.72-.51-7.39-.979-9.276-1.33s-3.772-.1-5.352-.607A14.725,14.725,0,0,1,223.534,717.881Z" transform="translate(-205.898 -683.479)" fill="#b6a2a7"/>
    <path id="Path_86745" data-name="Path 86745" d="M302.848,711.575c.5-.134,5.223.546,7.975.546s8.64-.153,9.787,0a6.387,6.387,0,0,0,3.156-1.058c-.069-.023-.352-1.466-3.921-1.771a79.582,79.582,0,0,1-8.463-1.392,6.789,6.789,0,0,1-2.088,1.163C307.994,709.521,302.848,711.575,302.848,711.575Z" transform="translate(-205.898 -683.479)" fill="#c3bdb5"/>
    <path id="Path_86746" data-name="Path 86746" d="M323.438,710.286s7.6,3.568,8.768,3.925,1.181,1.367.917,1.274-7.166,1.059-8.094.989a24.131,24.131,0,0,0-4.394,1,33.524,33.524,0,0,0,0-4.537c-.2-.407,1.07-1.733,1.376-1.885S323.438,710.286,323.438,710.286Z" transform="translate(-205.898 -683.479)" fill="#9b8f91"/>
    <path id="Path_86747" data-name="Path 86747" d="M297.291,717.628c.305-.257,5.5-6.068,5.81-6.119s3.515.124,6.881.357,10.628.255,10.628.255a19.6,19.6,0,0,1,.892,3.16,7.353,7.353,0,0,1-.867,2.192,46.346,46.346,0,0,1-6.015.561c-2.548,0-7.645.56-8.716.56S297.291,717.628,297.291,717.628Z" transform="translate(-205.898 -683.479)" fill="#b4a5a9"/>
    <path id="Path_86748" data-name="Path 86748" d="M239.183,691.554a25.241,25.241,0,0,1,2.79-.019,18.63,18.63,0,0,1,2.332.516c.574.191,2.179.459,3.059.765a8.292,8.292,0,0,0,3.478.764,33.765,33.765,0,0,1,4.435.459c.994.153,2.944.382,3.785.459a3.918,3.918,0,0,0,2.038-.293c.918-.306,1.632-.51,2.269-.765a24.726,24.726,0,0,1,2.88-1.172,22.226,22.226,0,0,1,3.44-.714c.841-.025,3.114-.2,3.114-.2s-5.357.967-5.994,1.222-2.732.849-3.874,1.377a6.217,6.217,0,0,0-2.2,1.274c-.119.306.161,1.07-.6,1.529a10.044,10.044,0,0,0-1.759,1.192c-.267.3-.841.911-.764,1.369a1.826,1.826,0,0,1-.038,1.415,11.5,11.5,0,0,0-.765,2.714,7.246,7.246,0,0,0,.229,2.982,24.1,24.1,0,0,1,.536,4.626,19.485,19.485,0,0,0,.694,3.412s-1.841-5.324-1.956-6.127-.174-2.484-.316-3.364a25.547,25.547,0,0,1-.181-3.1c0-.574-1.07-.459-1.414-.268s-4.358,2.141-5.352,2.485a17.092,17.092,0,0,1-3.152.535c-1.283.191-8.737.268-9.426.153s-5.2-2.141-5.543-2.294-.849-.939-.849-.939,2.111.84,3.1,1.119,3.249,1.77,4.32,1.655,3.937-.42,5.046-.42,2.141,0,2.676-.038,1.452-.383,2.485-.459a6.148,6.148,0,0,0,2.332-.738c.42-.218,1.8-.944,2.446-1.288a24.906,24.906,0,0,1,2.409-1.109c.458-.153,1.025-.42,1.1-.8a5.761,5.761,0,0,1,1-1.911,6.312,6.312,0,0,0,1.224-1.071c.267-.382.5-.955.344-1.108s-.7-.3-2.565-.53-3.772-.579-4.56-.655-2.356-.268-3.35-.459-1.606-.65-2.638-.841-2.676-.382-2.982-.5-1.3-.344-1.3-.344Z" transform="translate(-205.898 -683.479)" fill="#dddbd4"/>
    <path id="Path_86749" data-name="Path 86749" d="M285.669,700.614a27.456,27.456,0,0,1,2.867,2.676,8.256,8.256,0,0,0,1.529,1.606.992.992,0,0,0,1.338-.23,12.265,12.265,0,0,1,1.185-1.529c.344-.344,2.238-2.2,2.238-2.2s-1.473,2.315-1.779,2.621a8.946,8.946,0,0,0-1.3,1.611,7.056,7.056,0,0,0-.879,1.829,4.9,4.9,0,0,1-.621,1.835,7.584,7.584,0,0,0-1.023,2.332c-.077.612-.726,1.529-.268,1.568a29.021,29.021,0,0,0,3.288.382,50.805,50.805,0,0,0,5.849-.535,6.578,6.578,0,0,1-1.826.663c-.655.1-1.691.039-3.335.223a14.777,14.777,0,0,1-4.014,0c-.416-.162-1.871.34-2.828.392s-3.062.233-3.062.233,3.482-.861,4.093-.938.88-.115.956-.764a5.677,5.677,0,0,1,.535-2.1c.421-.879.918-1.713,1.147-2.386a6.839,6.839,0,0,0,.344-1.513c0-.153.191-.865-.382-1.255a15.479,15.479,0,0,1-1.8-1.5,12.711,12.711,0,0,1-1.644-1.8C286.051,701.455,285.669,700.614,285.669,700.614Z" transform="translate(-205.898 -683.479)" fill="#dddbd4"/>
  </g>
</svg>
